<svg version="1.0" preserveAspectRatio="xMidYMid meet" height="566" viewBox="0 0 1119.75 425.249996" zoomAndPan="magnify" width="1492" xmlns:xlink="http://www.w3.org/1999/xlink" xmlns="http://www.w3.org/2000/svg"><defs><g></g><clipPath id="657839a39f"><path clip-rule="nonzero" d="M 0.859375 0 L 1118.640625 0 L 1118.640625 424.5 L 0.859375 424.5 Z M 0.859375 0"></path></clipPath><clipPath id="2aeff01faf"><path clip-rule="nonzero" d="M 114 104 L 166 104 L 166 129 L 114 129 Z M 114 104"></path></clipPath><clipPath id="34d19598fb"><path clip-rule="nonzero" d="M 87.9375 6.417969 L 216.28125 47.839844 L 129.585938 316.46875 L 1.242188 275.050781 Z M 87.9375 6.417969"></path></clipPath><clipPath id="ebaad0dbb0"><path clip-rule="nonzero" d="M 87.9375 6.417969 L 216.28125 47.839844 L 129.585938 316.46875 L 1.242188 275.050781 Z M 87.9375 6.417969"></path></clipPath><clipPath id="673155506a"><path clip-rule="nonzero" d="M 87.9375 6.417969 L 216.28125 47.839844 L 129.585938 316.46875 L 1.242188 275.050781 Z M 87.9375 6.417969"></path></clipPath><clipPath id="df57bd999b"><path clip-rule="nonzero" d="M 126 75 L 199 75 L 199 105 L 126 105 Z M 126 75"></path></clipPath><clipPath id="c6295fe1ff"><path clip-rule="nonzero" d="M 87.9375 6.417969 L 216.28125 47.839844 L 129.585938 316.46875 L 1.242188 275.050781 Z M 87.9375 6.417969"></path></clipPath><clipPath id="b210dd1dcd"><path clip-rule="nonzero" d="M 87.9375 6.417969 L 216.28125 47.839844 L 129.585938 316.46875 L 1.242188 275.050781 Z M 87.9375 6.417969"></path></clipPath><clipPath id="ed238e042c"><path clip-rule="nonzero" d="M 87.9375 6.417969 L 216.28125 47.839844 L 129.585938 316.46875 L 1.242188 275.050781 Z M 87.9375 6.417969"></path></clipPath><clipPath id="f8f1b24d88"><path clip-rule="nonzero" d="M 127.464844 73.902344 L 200.386719 97.4375 L 197.550781 106.230469 L 124.625 82.695312 Z M 127.464844 73.902344"></path></clipPath><clipPath id="e8cdbf76bc"><path clip-rule="nonzero" d="M 127.464844 73.902344 L 200.242188 97.390625 L 197.40625 106.183594 L 124.625 82.695312 Z M 127.464844 73.902344"></path></clipPath><clipPath id="c882e82fa5"><path clip-rule="nonzero" d="M 150 61 L 188 61 L 188 78 L 150 78 Z M 150 61"></path></clipPath><clipPath id="36f8a23aab"><path clip-rule="nonzero" d="M 87.9375 6.417969 L 216.28125 47.839844 L 129.585938 316.46875 L 1.242188 275.050781 Z M 87.9375 6.417969"></path></clipPath><clipPath id="5f09ec6b62"><path clip-rule="nonzero" d="M 87.9375 6.417969 L 216.28125 47.839844 L 129.585938 316.46875 L 1.242188 275.050781 Z M 87.9375 6.417969"></path></clipPath><clipPath id="61c7453d1b"><path clip-rule="nonzero" d="M 87.9375 6.417969 L 216.28125 47.839844 L 129.585938 316.46875 L 1.242188 275.050781 Z M 87.9375 6.417969"></path></clipPath><clipPath id="310bcc9f03"><path clip-rule="nonzero" d="M 62 168 L 120 168 L 120 196 L 62 196 Z M 62 168"></path></clipPath><clipPath id="908ef05614"><path clip-rule="nonzero" d="M 87.9375 6.417969 L 216.28125 47.839844 L 129.585938 316.46875 L 1.242188 275.050781 Z M 87.9375 6.417969"></path></clipPath><clipPath id="00e35791df"><path clip-rule="nonzero" d="M 87.9375 6.417969 L 216.28125 47.839844 L 129.585938 316.46875 L 1.242188 275.050781 Z M 87.9375 6.417969"></path></clipPath><clipPath id="b7e26de116"><path clip-rule="nonzero" d="M 87.9375 6.417969 L 216.28125 47.839844 L 129.585938 316.46875 L 1.242188 275.050781 Z M 87.9375 6.417969"></path></clipPath><clipPath id="845071dd8c"><path clip-rule="nonzero" d="M 25 196 L 112 196 L 112 232 L 25 232 Z M 25 196"></path></clipPath><clipPath id="558e284277"><path clip-rule="nonzero" d="M 87.9375 6.417969 L 216.28125 47.839844 L 129.585938 316.46875 L 1.242188 275.050781 Z M 87.9375 6.417969"></path></clipPath><clipPath id="8ef7591baf"><path clip-rule="nonzero" d="M 87.9375 6.417969 L 216.28125 47.839844 L 129.585938 316.46875 L 1.242188 275.050781 Z M 87.9375 6.417969"></path></clipPath><clipPath id="cbc0d2f047"><path clip-rule="nonzero" d="M 87.9375 6.417969 L 216.28125 47.839844 L 129.585938 316.46875 L 1.242188 275.050781 Z M 87.9375 6.417969"></path></clipPath><clipPath id="294ae7eb38"><path clip-rule="nonzero" d="M 33 234 L 84 234 L 84 258 L 33 258 Z M 33 234"></path></clipPath><clipPath id="2b4593c982"><path clip-rule="nonzero" d="M 87.9375 6.417969 L 216.28125 47.839844 L 129.585938 316.46875 L 1.242188 275.050781 Z M 87.9375 6.417969"></path></clipPath><clipPath id="f11f65fb0e"><path clip-rule="nonzero" d="M 87.9375 6.417969 L 216.28125 47.839844 L 129.585938 316.46875 L 1.242188 275.050781 Z M 87.9375 6.417969"></path></clipPath><clipPath id="eb546a09df"><path clip-rule="nonzero" d="M 87.9375 6.417969 L 216.28125 47.839844 L 129.585938 316.46875 L 1.242188 275.050781 Z M 87.9375 6.417969"></path></clipPath><clipPath id="583cce25af"><path clip-rule="nonzero" d="M 167 48 L 177 48 L 177 58 L 167 58 Z M 167 48"></path></clipPath><clipPath id="170a7670f1"><path clip-rule="nonzero" d="M 87.9375 6.417969 L 216.28125 47.839844 L 129.585938 316.46875 L 1.242188 275.050781 Z M 87.9375 6.417969"></path></clipPath><clipPath id="cd113e80ed"><path clip-rule="nonzero" d="M 87.9375 6.417969 L 216.28125 47.839844 L 129.585938 316.46875 L 1.242188 275.050781 Z M 87.9375 6.417969"></path></clipPath><clipPath id="63064afaae"><path clip-rule="nonzero" d="M 87.9375 6.417969 L 216.28125 47.839844 L 129.585938 316.46875 L 1.242188 275.050781 Z M 87.9375 6.417969"></path></clipPath><clipPath id="973fa95958"><path clip-rule="nonzero" d="M 181 38 L 190 38 L 190 46 L 181 46 Z M 181 38"></path></clipPath><clipPath id="46495f1f60"><path clip-rule="nonzero" d="M 87.9375 6.417969 L 216.28125 47.839844 L 129.585938 316.46875 L 1.242188 275.050781 Z M 87.9375 6.417969"></path></clipPath><clipPath id="609e2ad8d8"><path clip-rule="nonzero" d="M 87.9375 6.417969 L 216.28125 47.839844 L 129.585938 316.46875 L 1.242188 275.050781 Z M 87.9375 6.417969"></path></clipPath><clipPath id="85c9eed6bf"><path clip-rule="nonzero" d="M 87.9375 6.417969 L 216.28125 47.839844 L 129.585938 316.46875 L 1.242188 275.050781 Z M 87.9375 6.417969"></path></clipPath><clipPath id="71bc0847ce"><path clip-rule="nonzero" d="M 98 91 L 137 91 L 137 217 L 98 217 Z M 98 91"></path></clipPath><clipPath id="055c6a5aa0"><path clip-rule="nonzero" d="M 87.9375 6.417969 L 216.28125 47.839844 L 129.585938 316.46875 L 1.242188 275.050781 Z M 87.9375 6.417969"></path></clipPath><clipPath id="64620fdab3"><path clip-rule="nonzero" d="M 87.9375 6.417969 L 216.28125 47.839844 L 129.585938 316.46875 L 1.242188 275.050781 Z M 87.9375 6.417969"></path></clipPath><clipPath id="925d14b9ce"><path clip-rule="nonzero" d="M 87.9375 6.417969 L 216.28125 47.839844 L 129.585938 316.46875 L 1.242188 275.050781 Z M 87.9375 6.417969"></path></clipPath><clipPath id="325e2e9a0a"><path clip-rule="nonzero" d="M 52 263 L 65 263 L 65 276 L 52 276 Z M 52 263"></path></clipPath><clipPath id="e4b6f1579c"><path clip-rule="nonzero" d="M 87.9375 6.417969 L 216.28125 47.839844 L 129.585938 316.46875 L 1.242188 275.050781 Z M 87.9375 6.417969"></path></clipPath><clipPath id="cd76ab65c6"><path clip-rule="nonzero" d="M 87.9375 6.417969 L 216.28125 47.839844 L 129.585938 316.46875 L 1.242188 275.050781 Z M 87.9375 6.417969"></path></clipPath><clipPath id="e28ef7c51e"><path clip-rule="nonzero" d="M 87.9375 6.417969 L 216.28125 47.839844 L 129.585938 316.46875 L 1.242188 275.050781 Z M 87.9375 6.417969"></path></clipPath><clipPath id="a9ec1d6672"><path clip-rule="nonzero" d="M 35 278 L 45 278 L 45 288 L 35 288 Z M 35 278"></path></clipPath><clipPath id="fa19a62eaf"><path clip-rule="nonzero" d="M 87.9375 6.417969 L 216.28125 47.839844 L 129.585938 316.46875 L 1.242188 275.050781 Z M 87.9375 6.417969"></path></clipPath><clipPath id="5d1a2b71ee"><path clip-rule="nonzero" d="M 87.9375 6.417969 L 216.28125 47.839844 L 129.585938 316.46875 L 1.242188 275.050781 Z M 87.9375 6.417969"></path></clipPath><clipPath id="92829c506e"><path clip-rule="nonzero" d="M 87.9375 6.417969 L 216.28125 47.839844 L 129.585938 316.46875 L 1.242188 275.050781 Z M 87.9375 6.417969"></path></clipPath><clipPath id="f6f6434b51"><path clip-rule="nonzero" d="M 37.101562 277.472656 L 45.445312 280.164062 L 42.691406 288.691406 L 34.351562 286 Z M 37.101562 277.472656"></path></clipPath><clipPath id="d3cdcc9dea"><path clip-rule="nonzero" d="M 37.101562 277.472656 L 45.445312 280.164062 L 42.765625 288.460938 L 34.425781 285.769531 Z M 37.101562 277.472656"></path></clipPath></defs><g clip-path="url(#657839a39f)"><path fill-rule="nonzero" fill-opacity="1" d="M 0.859375 0 L 1118.640625 0 L 1118.640625 424.5 L 0.859375 424.5 Z M 0.859375 0" fill="#ffffff"></path><path fill-rule="nonzero" fill-opacity="1" d="M 0.859375 0 L 1118.640625 0 L 1118.640625 424.5 L 0.859375 424.5 Z M 0.859375 0" fill="#ffffff"></path></g><path fill-rule="nonzero" fill-opacity="1" d="M 141.496094 341.832031 L 1082.066406 341.832031 L 1082.066406 344.96875 L 141.496094 344.96875 Z M 141.496094 341.832031" fill="#004aad"></path><g fill-opacity="1" fill="#004aad"><g transform="translate(141.497462, 338.695512)"><g><path d="M 15.390625 0.578125 C 13.046875 0.578125 10.734375 0.410156 8.453125 0.078125 C 6.171875 -0.242188 4.46875 -0.601562 3.34375 -1 L 3.34375 -5.859375 C 4.664062 -5.390625 6.4375 -4.96875 8.65625 -4.59375 C 10.882812 -4.21875 13.128906 -4.03125 15.390625 -4.03125 C 18.515625 -4.03125 20.835938 -4.554688 22.359375 -5.609375 C 23.878906 -6.671875 24.640625 -8.429688 24.640625 -10.890625 C 24.640625 -12.609375 24.382812 -13.929688 23.875 -14.859375 C 23.375 -15.796875 22.476562 -16.566406 21.1875 -17.171875 C 19.894531 -17.785156 17.925781 -18.398438 15.28125 -19.015625 C 12.3125 -19.722656 10.035156 -20.484375 8.453125 -21.296875 C 6.878906 -22.117188 5.726562 -23.222656 5 -24.609375 C 4.28125 -25.992188 3.921875 -27.859375 3.921875 -30.203125 C 3.921875 -33.910156 5.03125 -36.671875 7.25 -38.484375 C 9.476562 -40.296875 12.875 -41.203125 17.4375 -41.203125 C 19.351562 -41.203125 21.273438 -41.054688 23.203125 -40.765625 C 25.140625 -40.472656 26.613281 -40.132812 27.625 -39.75 L 27.625 -34.9375 C 26.414062 -35.40625 24.863281 -35.796875 22.96875 -36.109375 C 21.082031 -36.421875 19.257812 -36.578125 17.5 -36.578125 C 15.46875 -36.578125 13.859375 -36.398438 12.671875 -36.046875 C 11.484375 -35.703125 10.59375 -35.070312 10 -34.15625 C 9.414062 -33.238281 9.125 -31.921875 9.125 -30.203125 C 9.125 -28.878906 9.316406 -27.832031 9.703125 -27.0625 C 10.097656 -26.300781 10.867188 -25.648438 12.015625 -25.109375 C 13.171875 -24.566406 14.976562 -24 17.4375 -23.40625 C 20.632812 -22.664062 23.101562 -21.835938 24.84375 -20.921875 C 26.582031 -20.003906 27.84375 -18.773438 28.625 -17.234375 C 29.40625 -15.691406 29.796875 -13.597656 29.796875 -10.953125 C 29.796875 -3.265625 24.992188 0.578125 15.390625 0.578125 Z M 15.390625 0.578125"></path></g></g></g><g fill-opacity="1" fill="#004aad"><g transform="translate(174.615799, 338.695512)"><g><path d="M 5.390625 -40.625 L 10.65625 -40.625 L 10.65625 0 L 5.390625 0 Z M 5.390625 -40.625"></path></g></g></g><g fill-opacity="1" fill="#004aad"><g transform="translate(190.64837, 338.695512)"><g><path d="M 5.390625 -40.625 L 13.640625 -40.625 L 32.140625 -6.90625 L 32.484375 -6.90625 L 32.484375 -40.625 L 37.75 -40.625 L 37.75 0 L 30.78125 0 L 10.890625 -35.765625 L 10.53125 -35.765625 L 10.53125 0 L 5.390625 0 Z M 5.390625 -40.625"></path></g></g></g><g fill-opacity="1" fill="#004aad"><g transform="translate(233.772468, 338.695512)"><g><path d="M 23.234375 0.578125 C 18.984375 0.578125 15.488281 -0.00390625 12.75 -1.171875 C 10.019531 -2.335938 7.914062 -4.453125 6.4375 -7.515625 C 4.957031 -10.578125 4.21875 -14.84375 4.21875 -20.3125 C 4.21875 -27.84375 5.875 -33.207031 9.1875 -36.40625 C 12.507812 -39.601562 17.390625 -41.203125 23.828125 -41.203125 C 25.773438 -41.203125 27.734375 -41.054688 29.703125 -40.765625 C 31.671875 -40.472656 33.242188 -40.09375 34.421875 -39.625 L 34.421875 -34.9375 C 31.609375 -36.03125 28.15625 -36.578125 24.0625 -36.578125 C 20.820312 -36.578125 18.164062 -36.117188 16.09375 -35.203125 C 14.03125 -34.285156 12.453125 -32.632812 11.359375 -30.25 C 10.265625 -27.875 9.71875 -24.5625 9.71875 -20.3125 C 9.71875 -15.820312 10.242188 -12.394531 11.296875 -10.03125 C 12.347656 -7.675781 13.867188 -6.078125 15.859375 -5.234375 C 17.847656 -4.398438 20.503906 -3.984375 23.828125 -3.984375 C 24.878906 -3.984375 26.03125 -4.050781 27.28125 -4.1875 C 28.53125 -4.320312 29.582031 -4.503906 30.4375 -4.734375 L 30.4375 -17.328125 L 22.296875 -17.328125 L 22.296875 -21.78125 L 35.46875 -21.78125 L 35.46875 -1.109375 C 31.914062 0.015625 27.835938 0.578125 23.234375 0.578125 Z M 23.234375 0.578125"></path></g></g></g><g fill-opacity="1" fill="#004aad"><g transform="translate(273.853896, 338.695512)"><g><path d="M 28.453125 -12.109375 L 10.484375 -12.109375 L 6.03125 0 L 0.640625 0 L 16.03125 -40.625 L 23.0625 -40.625 L 38.390625 0 L 32.84375 0 Z M 26.75 -16.796875 L 19.90625 -35.703125 L 19.203125 -35.703125 L 12.234375 -16.796875 Z M 26.75 -16.796875"></path></g></g></g><g fill-opacity="1" fill="#004aad"><g transform="translate(312.882081, 338.695512)"><g><path d="M 5.390625 -40.625 L 16.6875 -40.625 C 20.46875 -40.625 23.441406 -40.171875 25.609375 -39.265625 C 27.773438 -38.367188 29.304688 -36.984375 30.203125 -35.109375 C 31.097656 -33.242188 31.546875 -30.75 31.546875 -27.625 C 31.546875 -24.425781 31.035156 -21.859375 30.015625 -19.921875 C 29.003906 -17.992188 27.414062 -16.59375 25.25 -15.71875 C 23.082031 -14.84375 20.226562 -14.40625 16.6875 -14.40625 L 10.65625 -14.40625 L 10.65625 0 L 5.390625 0 Z M 16.21875 -18.78125 C 18.789062 -18.78125 20.785156 -19.046875 22.203125 -19.578125 C 23.628906 -20.109375 24.644531 -21.003906 25.25 -22.265625 C 25.851562 -23.535156 26.15625 -25.320312 26.15625 -27.625 C 26.15625 -29.726562 25.84375 -31.382812 25.21875 -32.59375 C 24.601562 -33.8125 23.582031 -34.691406 22.15625 -35.234375 C 20.726562 -35.785156 18.75 -36.0625 16.21875 -36.0625 L 10.65625 -36.0625 L 10.65625 -18.78125 Z M 16.21875 -18.78125"></path></g></g></g><g fill-opacity="1" fill="#004aad"><g transform="translate(347.814353, 338.695512)"><g><path d="M 21.71875 0.578125 C 17.695312 0.578125 14.414062 -0.0390625 11.875 -1.28125 C 9.34375 -2.53125 7.429688 -4.675781 6.140625 -7.71875 C 4.859375 -10.769531 4.21875 -14.96875 4.21875 -20.3125 C 4.21875 -25.65625 4.859375 -29.847656 6.140625 -32.890625 C 7.429688 -35.929688 9.34375 -38.078125 11.875 -39.328125 C 14.414062 -40.578125 17.695312 -41.203125 21.71875 -41.203125 C 25.738281 -41.203125 29.015625 -40.578125 31.546875 -39.328125 C 34.085938 -38.078125 36 -35.929688 37.28125 -32.890625 C 38.570312 -29.847656 39.21875 -25.65625 39.21875 -20.3125 C 39.21875 -14.96875 38.570312 -10.769531 37.28125 -7.71875 C 36 -4.675781 34.085938 -2.53125 31.546875 -1.28125 C 29.015625 -0.0390625 25.738281 0.578125 21.71875 0.578125 Z M 21.71875 -3.921875 C 24.988281 -3.921875 27.492188 -4.476562 29.234375 -5.59375 C 30.972656 -6.707031 32.160156 -8.414062 32.796875 -10.71875 C 33.441406 -13.019531 33.765625 -16.21875 33.765625 -20.3125 C 33.765625 -24.289062 33.441406 -27.445312 32.796875 -29.78125 C 32.160156 -32.125 30.972656 -33.867188 29.234375 -35.015625 C 27.492188 -36.171875 24.988281 -36.75 21.71875 -36.75 C 18.476562 -36.75 15.988281 -36.171875 14.25 -35.015625 C 12.507812 -33.867188 11.316406 -32.125 10.671875 -29.78125 C 10.035156 -27.445312 9.71875 -24.289062 9.71875 -20.3125 C 9.71875 -16.21875 10.035156 -13.019531 10.671875 -10.71875 C 11.316406 -8.414062 12.5 -6.707031 14.21875 -5.59375 C 15.9375 -4.476562 18.4375 -3.921875 21.71875 -3.921875 Z M 21.71875 -3.921875"></path></g></g></g><g fill-opacity="1" fill="#004aad"><g transform="translate(391.289532, 338.695512)"><g><path d="M 28.859375 0 L 17.671875 -16.390625 C 17.242188 -16.347656 16.582031 -16.328125 15.6875 -16.328125 L 10.65625 -16.328125 L 10.65625 0 L 5.390625 0 L 5.390625 -40.625 L 15.6875 -40.625 C 19.550781 -40.625 22.59375 -40.242188 24.8125 -39.484375 C 27.039062 -38.722656 28.660156 -37.472656 29.671875 -35.734375 C 30.691406 -33.992188 31.203125 -31.625 31.203125 -28.625 C 31.203125 -25.144531 30.523438 -22.5 29.171875 -20.6875 C 27.828125 -18.875 25.734375 -17.632812 22.890625 -16.96875 L 35.0625 0 Z M 15.21875 -20.71875 C 17.945312 -20.71875 20.050781 -20.898438 21.53125 -21.265625 C 23.019531 -21.640625 24.113281 -22.394531 24.8125 -23.53125 C 25.519531 -24.664062 25.875 -26.363281 25.875 -28.625 C 25.875 -30.65625 25.507812 -32.207031 24.78125 -33.28125 C 24.0625 -34.351562 22.953125 -35.082031 21.453125 -35.46875 C 19.953125 -35.863281 17.875 -36.0625 15.21875 -36.0625 L 10.65625 -36.0625 L 10.65625 -20.71875 Z M 15.21875 -20.71875"></path></g></g></g><g fill-opacity="1" fill="#004aad"><g transform="translate(427.216517, 338.695512)"><g><path d="M 29.4375 -4.734375 L 29.4375 0 L 5.390625 0 L 5.390625 -40.625 L 27.984375 -40.625 L 27.984375 -35.9375 L 10.65625 -35.9375 L 10.65625 -23.359375 L 26.8125 -23.359375 L 26.8125 -18.90625 L 10.65625 -18.90625 L 10.65625 -4.734375 Z M 29.4375 -4.734375"></path></g></g></g><g fill-opacity="1" fill="#004aad"><g transform="translate(459.749751, 338.695512)"><g></g></g></g><g fill-opacity="1" fill="#004aad"><g transform="translate(474.787609, 338.695512)"><g><path d="M 22.703125 0.578125 C 18.691406 0.578125 15.347656 -0.015625 12.671875 -1.203125 C 9.992188 -2.390625 7.914062 -4.503906 6.4375 -7.546875 C 4.957031 -10.585938 4.21875 -14.84375 4.21875 -20.3125 C 4.21875 -27.800781 5.84375 -33.15625 9.09375 -36.375 C 12.351562 -39.59375 17.085938 -41.203125 23.296875 -41.203125 C 26.691406 -41.203125 29.617188 -40.8125 32.078125 -40.03125 L 32.078125 -35.171875 C 29.578125 -36.109375 26.6875 -36.578125 23.40625 -36.578125 C 20.25 -36.578125 17.675781 -36.0625 15.6875 -35.03125 C 13.695312 -34 12.203125 -32.300781 11.203125 -29.9375 C 10.210938 -27.570312 9.71875 -24.398438 9.71875 -20.421875 C 9.71875 -16.171875 10.1875 -12.863281 11.125 -10.5 C 12.0625 -8.144531 13.460938 -6.5 15.328125 -5.5625 C 17.203125 -4.625 19.722656 -4.15625 22.890625 -4.15625 C 24.722656 -4.15625 26.390625 -4.28125 27.890625 -4.53125 C 29.390625 -4.789062 30.941406 -5.191406 32.546875 -5.734375 L 32.546875 -1.171875 C 31.335938 -0.617188 29.882812 -0.191406 28.1875 0.109375 C 26.488281 0.421875 24.660156 0.578125 22.703125 0.578125 Z M 22.703125 0.578125"></path></g></g></g><g fill-opacity="1" fill="#004aad"><g transform="translate(509.836892, 338.695512)"><g><path d="M 29.4375 -4.734375 L 29.4375 0 L 5.390625 0 L 5.390625 -40.625 L 27.984375 -40.625 L 27.984375 -35.9375 L 10.65625 -35.9375 L 10.65625 -23.359375 L 26.8125 -23.359375 L 26.8125 -18.90625 L 10.65625 -18.90625 L 10.65625 -4.734375 Z M 29.4375 -4.734375"></path></g></g></g><g fill-opacity="1" fill="#004aad"><g transform="translate(542.370126, 338.695512)"><g><path d="M 28.265625 -4.734375 L 28.265625 0 L 5.390625 0 L 5.390625 -40.625 L 10.65625 -40.625 L 10.65625 -4.734375 Z M 28.265625 -4.734375"></path></g></g></g><g fill-opacity="1" fill="#004aad"><g transform="translate(572.036231, 338.695512)"><g><path d="M 28.265625 -4.734375 L 28.265625 0 L 5.390625 0 L 5.390625 -40.625 L 10.65625 -40.625 L 10.65625 -4.734375 Z M 28.265625 -4.734375"></path></g></g></g><g fill-opacity="1" fill="#004aad"><g transform="translate(601.702336, 338.695512)"><g></g></g></g><g fill-opacity="1" fill="#004aad"><g transform="translate(616.740193, 338.695512)"><g><path d="M 30.078125 -7.546875 C 31.097656 -6.453125 32.144531 -5.660156 33.21875 -5.171875 C 34.289062 -4.691406 35.703125 -4.453125 37.453125 -4.453125 L 37.453125 0 C 34.566406 0 32.375 -0.25 30.875 -0.75 C 29.375 -1.257812 27.898438 -2.335938 26.453125 -3.984375 C 24.578125 -2.378906 22.679688 -1.21875 20.765625 -0.5 C 18.859375 0.21875 16.875 0.578125 14.8125 0.578125 C 12.3125 0.578125 10.113281 0.117188 8.21875 -0.796875 C 6.332031 -1.710938 4.867188 -3.007812 3.828125 -4.6875 C 2.796875 -6.363281 2.28125 -8.296875 2.28125 -10.484375 C 2.28125 -12.941406 2.984375 -15.171875 4.390625 -17.171875 C 5.796875 -19.179688 8.117188 -21.085938 11.359375 -22.890625 C 10.148438 -24.566406 9.328125 -26.046875 8.890625 -27.328125 C 8.460938 -28.617188 8.25 -30.046875 8.25 -31.609375 C 8.25 -33.484375 8.675781 -35.148438 9.53125 -36.609375 C 10.394531 -38.078125 11.585938 -39.207031 13.109375 -40 C 14.628906 -40.800781 16.347656 -41.203125 18.265625 -41.203125 C 21.109375 -41.203125 23.359375 -40.375 25.015625 -38.71875 C 26.679688 -37.0625 27.515625 -34.984375 27.515625 -32.484375 C 27.515625 -30.140625 26.789062 -28.148438 25.34375 -26.515625 C 23.894531 -24.878906 21.59375 -23.28125 18.4375 -21.71875 L 26.984375 -11.234375 C 29.046875 -14.316406 30.21875 -17.597656 30.5 -21.078125 L 35.59375 -21.078125 C 35.195312 -18.335938 34.585938 -15.882812 33.765625 -13.71875 C 32.953125 -11.5625 31.722656 -9.503906 30.078125 -7.546875 Z M 18.140625 -36.875 C 16.816406 -36.875 15.710938 -36.394531 14.828125 -35.4375 C 13.953125 -34.476562 13.515625 -33.28125 13.515625 -31.84375 C 13.515625 -30.707031 13.691406 -29.601562 14.046875 -28.53125 C 14.398438 -27.457031 15.003906 -26.296875 15.859375 -25.046875 C 18.160156 -26.140625 19.816406 -27.222656 20.828125 -28.296875 C 21.847656 -29.367188 22.359375 -30.6875 22.359375 -32.25 C 22.359375 -33.613281 21.976562 -34.722656 21.21875 -35.578125 C 20.457031 -36.441406 19.429688 -36.875 18.140625 -36.875 Z M 7.609375 -11.0625 C 7.609375 -8.875 8.328125 -7.132812 9.765625 -5.84375 C 11.210938 -4.5625 13.109375 -3.921875 15.453125 -3.921875 C 17.015625 -3.921875 18.425781 -4.179688 19.6875 -4.703125 C 20.957031 -5.234375 22.296875 -6.125 23.703125 -7.375 L 13.984375 -19.484375 C 11.722656 -18.160156 10.09375 -16.816406 9.09375 -15.453125 C 8.101562 -14.085938 7.609375 -12.625 7.609375 -11.0625 Z M 7.609375 -11.0625"></path></g></g></g><g fill-opacity="1" fill="#004aad"><g transform="translate(654.188514, 338.695512)"><g></g></g></g><g fill-opacity="1" fill="#004aad"><g transform="translate(669.226371, 338.695512)"><g><path d="M 23.234375 0.578125 C 18.984375 0.578125 15.488281 -0.00390625 12.75 -1.171875 C 10.019531 -2.335938 7.914062 -4.453125 6.4375 -7.515625 C 4.957031 -10.578125 4.21875 -14.84375 4.21875 -20.3125 C 4.21875 -27.84375 5.875 -33.207031 9.1875 -36.40625 C 12.507812 -39.601562 17.390625 -41.203125 23.828125 -41.203125 C 25.773438 -41.203125 27.734375 -41.054688 29.703125 -40.765625 C 31.671875 -40.472656 33.242188 -40.09375 34.421875 -39.625 L 34.421875 -34.9375 C 31.609375 -36.03125 28.15625 -36.578125 24.0625 -36.578125 C 20.820312 -36.578125 18.164062 -36.117188 16.09375 -35.203125 C 14.03125 -34.285156 12.453125 -32.632812 11.359375 -30.25 C 10.265625 -27.875 9.71875 -24.5625 9.71875 -20.3125 C 9.71875 -15.820312 10.242188 -12.394531 11.296875 -10.03125 C 12.347656 -7.675781 13.867188 -6.078125 15.859375 -5.234375 C 17.847656 -4.398438 20.503906 -3.984375 23.828125 -3.984375 C 24.878906 -3.984375 26.03125 -4.050781 27.28125 -4.1875 C 28.53125 -4.320312 29.582031 -4.503906 30.4375 -4.734375 L 30.4375 -17.328125 L 22.296875 -17.328125 L 22.296875 -21.78125 L 35.46875 -21.78125 L 35.46875 -1.109375 C 31.914062 0.015625 27.835938 0.578125 23.234375 0.578125 Z M 23.234375 0.578125"></path></g></g></g><g fill-opacity="1" fill="#004aad"><g transform="translate(709.307799, 338.695512)"><g><path d="M 29.4375 -4.734375 L 29.4375 0 L 5.390625 0 L 5.390625 -40.625 L 27.984375 -40.625 L 27.984375 -35.9375 L 10.65625 -35.9375 L 10.65625 -23.359375 L 26.8125 -23.359375 L 26.8125 -18.90625 L 10.65625 -18.90625 L 10.65625 -4.734375 Z M 29.4375 -4.734375"></path></g></g></g><g fill-opacity="1" fill="#004aad"><g transform="translate(741.841033, 338.695512)"><g><path d="M 5.390625 -40.625 L 13.640625 -40.625 L 32.140625 -6.90625 L 32.484375 -6.90625 L 32.484375 -40.625 L 37.75 -40.625 L 37.75 0 L 30.78125 0 L 10.890625 -35.765625 L 10.53125 -35.765625 L 10.53125 0 L 5.390625 0 Z M 5.390625 -40.625"></path></g></g></g><g fill-opacity="1" fill="#004aad"><g transform="translate(784.965131, 338.695512)"><g><path d="M 29.4375 -4.734375 L 29.4375 0 L 5.390625 0 L 5.390625 -40.625 L 27.984375 -40.625 L 27.984375 -35.9375 L 10.65625 -35.9375 L 10.65625 -23.359375 L 26.8125 -23.359375 L 26.8125 -18.90625 L 10.65625 -18.90625 L 10.65625 -4.734375 Z M 29.4375 -4.734375"></path></g></g></g><g fill-opacity="1" fill="#004aad"><g transform="translate(817.498365, 338.695512)"><g></g></g></g><g fill-opacity="1" fill="#004aad"><g transform="translate(832.536223, 338.695512)"><g><path d="M 29.90625 -35.9375 L 18.09375 -35.9375 L 18.09375 0 L 12.8125 0 L 12.8125 -35.9375 L 0.9375 -35.9375 L 0.9375 -40.625 L 29.90625 -40.625 Z M 29.90625 -35.9375"></path></g></g></g><g fill-opacity="1" fill="#004aad"><g transform="translate(863.431111, 338.695512)"><g><path d="M 36.0625 -40.625 L 36.0625 0 L 30.734375 0 L 30.734375 -19.671875 L 10.65625 -19.671875 L 10.65625 0 L 5.390625 0 L 5.390625 -40.625 L 10.65625 -40.625 L 10.65625 -24.0625 L 30.734375 -24.0625 L 30.734375 -40.625 Z M 36.0625 -40.625"></path></g></g></g><g fill-opacity="1" fill="#004aad"><g transform="translate(904.858334, 338.695512)"><g><path d="M 29.4375 -4.734375 L 29.4375 0 L 5.390625 0 L 5.390625 -40.625 L 27.984375 -40.625 L 27.984375 -35.9375 L 10.65625 -35.9375 L 10.65625 -23.359375 L 26.8125 -23.359375 L 26.8125 -18.90625 L 10.65625 -18.90625 L 10.65625 -4.734375 Z M 29.4375 -4.734375"></path></g></g></g><g fill-opacity="1" fill="#004aad"><g transform="translate(937.391568, 338.695512)"><g><path d="M 28.859375 0 L 17.671875 -16.390625 C 17.242188 -16.347656 16.582031 -16.328125 15.6875 -16.328125 L 10.65625 -16.328125 L 10.65625 0 L 5.390625 0 L 5.390625 -40.625 L 15.6875 -40.625 C 19.550781 -40.625 22.59375 -40.242188 24.8125 -39.484375 C 27.039062 -38.722656 28.660156 -37.472656 29.671875 -35.734375 C 30.691406 -33.992188 31.203125 -31.625 31.203125 -28.625 C 31.203125 -25.144531 30.523438 -22.5 29.171875 -20.6875 C 27.828125 -18.875 25.734375 -17.632812 22.890625 -16.96875 L 35.0625 0 Z M 15.21875 -20.71875 C 17.945312 -20.71875 20.050781 -20.898438 21.53125 -21.265625 C 23.019531 -21.640625 24.113281 -22.394531 24.8125 -23.53125 C 25.519531 -24.664062 25.875 -26.363281 25.875 -28.625 C 25.875 -30.65625 25.507812 -32.207031 24.78125 -33.28125 C 24.0625 -34.351562 22.953125 -35.082031 21.453125 -35.46875 C 19.953125 -35.863281 17.875 -36.0625 15.21875 -36.0625 L 10.65625 -36.0625 L 10.65625 -20.71875 Z M 15.21875 -20.71875"></path></g></g></g><g fill-opacity="1" fill="#004aad"><g transform="translate(973.318601, 338.695512)"><g><path d="M 28.453125 -12.109375 L 10.484375 -12.109375 L 6.03125 0 L 0.640625 0 L 16.03125 -40.625 L 23.0625 -40.625 L 38.390625 0 L 32.84375 0 Z M 26.75 -16.796875 L 19.90625 -35.703125 L 19.203125 -35.703125 L 12.234375 -16.796875 Z M 26.75 -16.796875"></path></g></g></g><g fill-opacity="1" fill="#004aad"><g transform="translate(1012.346786, 338.695512)"><g><path d="M 5.390625 -40.625 L 16.6875 -40.625 C 20.46875 -40.625 23.441406 -40.171875 25.609375 -39.265625 C 27.773438 -38.367188 29.304688 -36.984375 30.203125 -35.109375 C 31.097656 -33.242188 31.546875 -30.75 31.546875 -27.625 C 31.546875 -24.425781 31.035156 -21.859375 30.015625 -19.921875 C 29.003906 -17.992188 27.414062 -16.59375 25.25 -15.71875 C 23.082031 -14.84375 20.226562 -14.40625 16.6875 -14.40625 L 10.65625 -14.40625 L 10.65625 0 L 5.390625 0 Z M 16.21875 -18.78125 C 18.789062 -18.78125 20.785156 -19.046875 22.203125 -19.578125 C 23.628906 -20.109375 24.644531 -21.003906 25.25 -22.265625 C 25.851562 -23.535156 26.15625 -25.320312 26.15625 -27.625 C 26.15625 -29.726562 25.84375 -31.382812 25.21875 -32.59375 C 24.601562 -33.8125 23.582031 -34.691406 22.15625 -35.234375 C 20.726562 -35.785156 18.75 -36.0625 16.21875 -36.0625 L 10.65625 -36.0625 L 10.65625 -18.78125 Z M 16.21875 -18.78125"></path></g></g></g><g fill-opacity="1" fill="#004aad"><g transform="translate(1047.279058, 338.695512)"><g><path d="M 14.6875 -17.4375 L 0.34375 -40.625 L 6.4375 -40.625 L 17.390625 -22.234375 L 17.734375 -22.234375 L 28.625 -40.625 L 34.421875 -40.625 L 19.953125 -17.5 L 19.953125 0 L 14.6875 0 Z M 14.6875 -17.4375"></path></g></g></g><g fill-opacity="1" fill="#004aad"><g transform="translate(1082.066816, 338.695512)"><g></g></g></g><g fill-opacity="1" fill="#004aad"><g transform="translate(141.497462, 401.423004)"><g><path d="M 5.765625 -43.53125 L 17.875 -43.53125 C 21.9375 -43.53125 25.125 -43.050781 27.4375 -42.09375 C 29.757812 -41.132812 31.398438 -39.648438 32.359375 -37.640625 C 33.328125 -35.628906 33.8125 -32.953125 33.8125 -29.609375 C 33.8125 -26.179688 33.265625 -23.429688 32.171875 -21.359375 C 31.085938 -19.285156 29.382812 -17.78125 27.0625 -16.84375 C 24.75 -15.90625 21.6875 -15.4375 17.875 -15.4375 L 11.421875 -15.4375 L 11.421875 0 L 5.765625 0 Z M 17.375 -20.140625 C 20.132812 -20.140625 22.273438 -20.421875 23.796875 -20.984375 C 25.328125 -21.546875 26.414062 -22.503906 27.0625 -23.859375 C 27.71875 -25.222656 28.046875 -27.140625 28.046875 -29.609375 C 28.046875 -31.867188 27.707031 -33.644531 27.03125 -34.9375 C 26.363281 -36.238281 25.265625 -37.179688 23.734375 -37.765625 C 22.210938 -38.347656 20.09375 -38.640625 17.375 -38.640625 L 11.421875 -38.640625 L 11.421875 -20.140625 Z M 17.375 -20.140625"></path></g></g></g><g fill-opacity="1" fill="#004aad"><g transform="translate(178.945734, 401.423004)"><g><path d="M 30.484375 -12.984375 L 11.234375 -12.984375 L 6.46875 0 L 0.6875 0 L 17.1875 -43.53125 L 24.71875 -43.53125 L 41.15625 0 L 35.1875 0 Z M 28.671875 -18 L 21.328125 -38.265625 L 20.578125 -38.265625 L 13.109375 -18 Z M 28.671875 -18"></path></g></g></g><g fill-opacity="1" fill="#004aad"><g transform="translate(220.784912, 401.423004)"><g><path d="M 5.765625 -43.53125 L 14.609375 -43.53125 L 34.4375 -7.40625 L 34.8125 -7.40625 L 34.8125 -43.53125 L 40.46875 -43.53125 L 40.46875 0 L 33 0 L 11.671875 -38.328125 L 11.296875 -38.328125 L 11.296875 0 L 5.765625 0 Z M 5.765625 -43.53125"></path></g></g></g><g fill-opacity="1" fill="#004aad"><g transform="translate(267.015043, 401.423004)"><g></g></g></g><g fill-opacity="1" fill="#004aad"><g transform="translate(283.136007, 401.423004)"><g><path d="M 30.484375 -12.984375 L 11.234375 -12.984375 L 6.46875 0 L 0.6875 0 L 17.1875 -43.53125 L 24.71875 -43.53125 L 41.15625 0 L 35.1875 0 Z M 28.671875 -18 L 21.328125 -38.265625 L 20.578125 -38.265625 L 13.109375 -18 Z M 28.671875 -18"></path></g></g></g><g fill-opacity="1" fill="#004aad"><g transform="translate(324.975184, 401.423004)"><g><path d="M 16.5 0.625 C 13.988281 0.625 11.507812 0.445312 9.0625 0.09375 C 6.613281 -0.257812 4.785156 -0.644531 3.578125 -1.0625 L 3.578125 -6.265625 C 4.992188 -5.765625 6.894531 -5.316406 9.28125 -4.921875 C 11.664062 -4.523438 14.070312 -4.328125 16.5 -4.328125 C 19.84375 -4.328125 22.328125 -4.890625 23.953125 -6.015625 C 25.585938 -7.148438 26.40625 -9.035156 26.40625 -11.671875 C 26.40625 -13.503906 26.132812 -14.921875 25.59375 -15.921875 C 25.050781 -16.929688 24.085938 -17.757812 22.703125 -18.40625 C 21.328125 -19.0625 19.21875 -19.722656 16.375 -20.390625 C 13.195312 -21.140625 10.757812 -21.953125 9.0625 -22.828125 C 7.375 -23.710938 6.140625 -24.894531 5.359375 -26.375 C 4.585938 -27.863281 4.203125 -29.863281 4.203125 -32.375 C 4.203125 -36.34375 5.394531 -39.300781 7.78125 -41.25 C 10.164062 -43.195312 13.800781 -44.171875 18.6875 -44.171875 C 20.738281 -44.171875 22.800781 -44.007812 24.875 -43.6875 C 26.945312 -43.375 28.523438 -43.007812 29.609375 -42.59375 L 29.609375 -37.453125 C 28.316406 -37.953125 26.65625 -38.367188 24.625 -38.703125 C 22.59375 -39.035156 20.632812 -39.203125 18.75 -39.203125 C 16.582031 -39.203125 14.859375 -39.015625 13.578125 -38.640625 C 12.304688 -38.265625 11.351562 -37.582031 10.71875 -36.59375 C 10.09375 -35.613281 9.78125 -34.207031 9.78125 -32.375 C 9.78125 -30.945312 9.988281 -29.828125 10.40625 -29.015625 C 10.832031 -28.203125 11.660156 -27.5 12.890625 -26.90625 C 14.128906 -26.320312 16.0625 -25.71875 18.6875 -25.09375 C 22.125 -24.300781 24.769531 -23.410156 26.625 -22.421875 C 28.488281 -21.441406 29.835938 -20.125 30.671875 -18.46875 C 31.515625 -16.820312 31.9375 -14.578125 31.9375 -11.734375 C 31.9375 -3.492188 26.789062 0.625 16.5 0.625 Z M 16.5 0.625"></path></g></g></g><g fill-opacity="1" fill="#004aad"><g transform="translate(360.47892, 401.423004)"><g><path d="M 5.765625 -43.53125 L 11.421875 -43.53125 L 11.421875 0 L 5.765625 0 Z M 5.765625 -43.53125"></path></g></g></g><g fill-opacity="1" fill="#004aad"><g transform="translate(377.666239, 401.423004)"><g><path d="M 30.484375 -12.984375 L 11.234375 -12.984375 L 6.46875 0 L 0.6875 0 L 17.1875 -43.53125 L 24.71875 -43.53125 L 41.15625 0 L 35.1875 0 Z M 28.671875 -18 L 21.328125 -38.265625 L 20.578125 -38.265625 L 13.109375 -18 Z M 28.671875 -18"></path></g></g></g><g fill-opacity="1" fill="#004aad"><g transform="translate(419.505417, 401.423004)"><g></g></g></g><g fill-opacity="1" fill="#004aad"><g transform="translate(435.626381, 401.423004)"><g><path d="M 16.5 0.625 C 13.988281 0.625 11.507812 0.445312 9.0625 0.09375 C 6.613281 -0.257812 4.785156 -0.644531 3.578125 -1.0625 L 3.578125 -6.265625 C 4.992188 -5.765625 6.894531 -5.316406 9.28125 -4.921875 C 11.664062 -4.523438 14.070312 -4.328125 16.5 -4.328125 C 19.84375 -4.328125 22.328125 -4.890625 23.953125 -6.015625 C 25.585938 -7.148438 26.40625 -9.035156 26.40625 -11.671875 C 26.40625 -13.503906 26.132812 -14.921875 25.59375 -15.921875 C 25.050781 -16.929688 24.085938 -17.757812 22.703125 -18.40625 C 21.328125 -19.0625 19.21875 -19.722656 16.375 -20.390625 C 13.195312 -21.140625 10.757812 -21.953125 9.0625 -22.828125 C 7.375 -23.710938 6.140625 -24.894531 5.359375 -26.375 C 4.585938 -27.863281 4.203125 -29.863281 4.203125 -32.375 C 4.203125 -36.34375 5.394531 -39.300781 7.78125 -41.25 C 10.164062 -43.195312 13.800781 -44.171875 18.6875 -44.171875 C 20.738281 -44.171875 22.800781 -44.007812 24.875 -43.6875 C 26.945312 -43.375 28.523438 -43.007812 29.609375 -42.59375 L 29.609375 -37.453125 C 28.316406 -37.953125 26.65625 -38.367188 24.625 -38.703125 C 22.59375 -39.035156 20.632812 -39.203125 18.75 -39.203125 C 16.582031 -39.203125 14.859375 -39.015625 13.578125 -38.640625 C 12.304688 -38.265625 11.351562 -37.582031 10.71875 -36.59375 C 10.09375 -35.613281 9.78125 -34.207031 9.78125 -32.375 C 9.78125 -30.945312 9.988281 -29.828125 10.40625 -29.015625 C 10.832031 -28.203125 11.660156 -27.5 12.890625 -26.90625 C 14.128906 -26.320312 16.0625 -25.71875 18.6875 -25.09375 C 22.125 -24.300781 24.769531 -23.410156 26.625 -22.421875 C 28.488281 -21.441406 29.835938 -20.125 30.671875 -18.46875 C 31.515625 -16.820312 31.9375 -14.578125 31.9375 -11.734375 C 31.9375 -3.492188 26.789062 0.625 16.5 0.625 Z M 16.5 0.625"></path></g></g></g><g fill-opacity="1" fill="#004aad"><g transform="translate(471.130117, 401.423004)"><g><path d="M 21.953125 0.625 C 16.390625 0.625 12.269531 -0.519531 9.59375 -2.8125 C 6.914062 -5.113281 5.578125 -8.859375 5.578125 -14.046875 L 5.578125 -43.53125 L 11.171875 -43.53125 L 11.171875 -15.3125 C 11.171875 -12.507812 11.515625 -10.320312 12.203125 -8.75 C 12.890625 -7.1875 14.015625 -6.054688 15.578125 -5.359375 C 17.148438 -4.671875 19.296875 -4.328125 22.015625 -4.328125 C 24.859375 -4.328125 27.050781 -4.671875 28.59375 -5.359375 C 30.144531 -6.054688 31.242188 -7.175781 31.890625 -8.71875 C 32.546875 -10.269531 32.875 -12.46875 32.875 -15.3125 L 32.875 -43.53125 L 38.453125 -43.53125 L 38.453125 -14.046875 C 38.453125 -8.992188 37.09375 -5.285156 34.375 -2.921875 C 31.65625 -0.554688 27.515625 0.625 21.953125 0.625 Z M 21.953125 0.625"></path></g></g></g><g fill-opacity="1" fill="#004aad"><g transform="translate(515.102054, 401.423004)"><g><path d="M 5.765625 -43.53125 L 14.8125 -43.53125 L 25.90625 -15.5 L 26.28125 -15.5 L 37.390625 -43.53125 L 46.296875 -43.53125 L 46.296875 0 L 40.65625 0 L 40.65625 -37.828125 L 40.28125 -37.828125 L 29.109375 -9.84375 L 22.953125 -9.84375 L 11.671875 -37.828125 L 11.296875 -37.828125 L 11.296875 0 L 5.765625 0 Z M 5.765625 -43.53125"></path></g></g></g><g fill-opacity="1" fill="#004aad"><g transform="translate(567.165844, 401.423004)"><g><path d="M 5.765625 -43.53125 L 14.8125 -43.53125 L 25.90625 -15.5 L 26.28125 -15.5 L 37.390625 -43.53125 L 46.296875 -43.53125 L 46.296875 0 L 40.65625 0 L 40.65625 -37.828125 L 40.28125 -37.828125 L 29.109375 -9.84375 L 22.953125 -9.84375 L 11.671875 -37.828125 L 11.296875 -37.828125 L 11.296875 0 L 5.765625 0 Z M 5.765625 -43.53125"></path></g></g></g><g fill-opacity="1" fill="#004aad"><g transform="translate(619.229633, 401.423004)"><g><path d="M 5.765625 -43.53125 L 11.421875 -43.53125 L 11.421875 0 L 5.765625 0 Z M 5.765625 -43.53125"></path></g></g></g><g fill-opacity="1" fill="#004aad"><g transform="translate(636.416952, 401.423004)"><g><path d="M 32.0625 -38.515625 L 19.390625 -38.515625 L 19.390625 0 L 13.734375 0 L 13.734375 -38.515625 L 1 -38.515625 L 1 -43.53125 L 32.0625 -43.53125 Z M 32.0625 -38.515625"></path></g></g></g><g fill-opacity="1" fill="#004aad"><g transform="translate(669.537061, 401.423004)"><g></g></g></g><g fill-opacity="1" fill="#004aad"><g transform="translate(685.658024, 401.423004)"><g><path d="M 3.578125 -5.953125 C 9.640625 -10.722656 14.207031 -14.613281 17.28125 -17.625 C 20.351562 -20.632812 22.421875 -23.175781 23.484375 -25.25 C 24.554688 -27.320312 25.09375 -29.488281 25.09375 -31.75 C 25.09375 -34.59375 24.203125 -36.585938 22.421875 -37.734375 C 20.648438 -38.878906 18.46875 -39.453125 15.875 -39.453125 C 12.570312 -39.453125 9.476562 -39.078125 6.59375 -38.328125 L 6.59375 -43.15625 C 9.4375 -43.832031 12.738281 -44.171875 16.5 -44.171875 C 20.9375 -44.171875 24.375 -43.164062 26.8125 -41.15625 C 29.257812 -39.144531 30.484375 -35.988281 30.484375 -31.6875 C 30.484375 -29.007812 29.941406 -26.539062 28.859375 -24.28125 C 27.773438 -22.019531 25.957031 -19.582031 23.40625 -16.96875 C 20.851562 -14.351562 17.148438 -11.125 12.296875 -7.28125 L 9.78125 -5.328125 L 9.78125 -4.765625 L 32.25 -4.765625 L 32.25 0 L 3.578125 0 Z M 3.578125 -5.953125"></path></g></g></g><g fill-opacity="1" fill="#004aad"><g transform="translate(721.726284, 401.423004)"><g><path d="M 18 0.625 C 14.90625 0.625 12.28125 -0.0195312 10.125 -1.3125 C 7.976562 -2.613281 6.304688 -4.90625 5.109375 -8.1875 C 3.921875 -11.46875 3.328125 -15.992188 3.328125 -21.765625 C 3.328125 -27.492188 3.921875 -32 5.109375 -35.28125 C 6.304688 -38.570312 7.976562 -40.875 10.125 -42.1875 C 12.28125 -43.507812 14.90625 -44.171875 18 -44.171875 C 21.132812 -44.171875 23.78125 -43.507812 25.9375 -42.1875 C 28.09375 -40.875 29.765625 -38.570312 30.953125 -35.28125 C 32.148438 -32 32.75 -27.492188 32.75 -21.765625 C 32.75 -15.992188 32.148438 -11.46875 30.953125 -8.1875 C 29.765625 -4.90625 28.09375 -2.613281 25.9375 -1.3125 C 23.78125 -0.0195312 21.132812 0.625 18 0.625 Z M 18 -4.078125 C 20.132812 -4.078125 21.847656 -4.585938 23.140625 -5.609375 C 24.441406 -6.640625 25.414062 -8.441406 26.0625 -11.015625 C 26.707031 -13.585938 27.03125 -17.171875 27.03125 -21.765625 C 27.03125 -26.367188 26.707031 -29.945312 26.0625 -32.5 C 25.414062 -35.050781 24.441406 -36.835938 23.140625 -37.859375 C 21.847656 -38.878906 20.132812 -39.390625 18 -39.390625 C 15.875 -39.390625 14.171875 -38.878906 12.890625 -37.859375 C 11.617188 -36.835938 10.664062 -35.050781 10.03125 -32.5 C 9.40625 -29.945312 9.09375 -26.367188 9.09375 -21.765625 C 9.09375 -17.171875 9.40625 -13.585938 10.03125 -11.015625 C 10.664062 -8.441406 11.617188 -6.640625 12.890625 -5.609375 C 14.171875 -4.585938 15.875 -4.078125 18 -4.078125 Z M 18 -4.078125"></path></g></g></g><g fill-opacity="1" fill="#004aad"><g transform="translate(757.794544, 401.423004)"><g><path d="M 3.578125 -5.953125 C 9.640625 -10.722656 14.207031 -14.613281 17.28125 -17.625 C 20.351562 -20.632812 22.421875 -23.175781 23.484375 -25.25 C 24.554688 -27.320312 25.09375 -29.488281 25.09375 -31.75 C 25.09375 -34.59375 24.203125 -36.585938 22.421875 -37.734375 C 20.648438 -38.878906 18.46875 -39.453125 15.875 -39.453125 C 12.570312 -39.453125 9.476562 -39.078125 6.59375 -38.328125 L 6.59375 -43.15625 C 9.4375 -43.832031 12.738281 -44.171875 16.5 -44.171875 C 20.9375 -44.171875 24.375 -43.164062 26.8125 -41.15625 C 29.257812 -39.144531 30.484375 -35.988281 30.484375 -31.6875 C 30.484375 -29.007812 29.941406 -26.539062 28.859375 -24.28125 C 27.773438 -22.019531 25.957031 -19.582031 23.40625 -16.96875 C 20.851562 -14.351562 17.148438 -11.125 12.296875 -7.28125 L 9.78125 -5.328125 L 9.78125 -4.765625 L 32.25 -4.765625 L 32.25 0 L 3.578125 0 Z M 3.578125 -5.953125"></path></g></g></g><g fill-opacity="1" fill="#004aad"><g transform="translate(793.862804, 401.423004)"><g><path d="M 33.1875 -10.734375 L 28.046875 -10.734375 L 28.046875 0 L 22.765625 0 L 22.765625 -10.734375 L 2.203125 -10.734375 L 2.203125 -16.8125 L 21.265625 -43.53125 L 28.046875 -43.53125 L 28.046875 -15.5 L 33.1875 -15.5 Z M 22.765625 -15.5 L 22.765625 -37.765625 L 22.390625 -37.765625 L 6.96875 -15.875 L 6.96875 -15.5 Z M 22.765625 -15.5"></path></g></g></g><g clip-path="url(#2aeff01faf)"><g clip-path="url(#34d19598fb)"><g clip-path="url(#ebaad0dbb0)"><g clip-path="url(#673155506a)"><path fill-rule="nonzero" fill-opacity="1" d="M 162.492188 119.921875 C 162.15625 119.808594 161.816406 119.75 161.480469 119.738281 C 156.117188 119.542969 150.808594 118.867188 145.742188 117.230469 L 142.308594 116.125 C 135.558594 113.945312 129.152344 110.667969 123.695312 105.976562 C 123.109375 105.472656 122.410156 105.101562 121.617188 104.902344 C 118.933594 104.234375 116.03125 105.910156 114.914062 108.78125 C 113.609375 112.140625 115.125 115.773438 118.160156 116.75 C 118.835938 116.96875 119.527344 117.039062 120.207031 116.972656 C 127.085938 116.296875 133.917969 117.28125 140.394531 119.371094 L 144.378906 120.65625 C 149.464844 122.296875 154.359375 124.578125 158.695312 127.792969 C 159.003906 128.023438 159.351562 128.207031 159.734375 128.328125 C 161.894531 129.023438 164.28125 127.574219 164.945312 125.101562 C 165.546875 122.875 164.457031 120.578125 162.492188 119.921875" fill="#1c81af"></path></g></g></g></g><g clip-path="url(#df57bd999b)"><g clip-path="url(#c6295fe1ff)"><g clip-path="url(#b210dd1dcd)"><g clip-path="url(#ed238e042c)"><g clip-path="url(#f8f1b24d88)"><g clip-path="url(#e8cdbf76bc)"><path fill-rule="nonzero" fill-opacity="1" d="M 196.230469 96.929688 C 195.6875 96.714844 195.136719 96.605469 194.601562 96.589844 C 188.050781 96.378906 181.519531 94.996094 175.21875 92.960938 L 153.933594 86.09375 C 146.792969 83.789062 139.898438 80.667969 133.832031 76.402344 C 133.390625 76.09375 132.886719 75.839844 132.332031 75.664062 C 129.851562 74.871094 127.183594 75.964844 126.34375 78.125 C 125.414062 80.507812 126.9375 83.21875 129.636719 84.089844 C 130.113281 84.242188 130.59375 84.328125 131.066406 84.351562 C 137.6875 84.671875 144.269531 86.097656 150.636719 88.148438 L 178.78125 97.234375 C 183.652344 98.804688 188.226562 101.082031 192.613281 103.660156 C 192.90625 103.832031 193.226562 103.976562 193.570312 104.089844 C 195.980469 104.867188 198.5 103.628906 198.9375 101.347656 C 199.277344 99.566406 198.121094 97.683594 196.230469 96.929688" fill="#1c81af"></path></g></g></g></g></g></g><g clip-path="url(#c882e82fa5)"><g clip-path="url(#36f8a23aab)"><g clip-path="url(#5f09ec6b62)"><g clip-path="url(#61c7453d1b)"><path fill-rule="nonzero" fill-opacity="1" d="M 186.324219 73.199219 C 186.105469 73.097656 185.878906 73.050781 185.652344 73.054688 C 183.722656 73.070312 181.816406 72.910156 180.011719 72.328125 L 162.527344 66.6875 C 159.707031 65.777344 157.132812 64.203125 154.933594 62.0625 C 154.582031 61.722656 154.144531 61.492188 153.628906 61.417969 C 152.363281 61.234375 151.007812 62.152344 150.390625 63.609375 C 149.558594 65.570312 150.273438 67.6875 151.859375 68.203125 C 152.207031 68.3125 152.566406 68.335938 152.921875 68.285156 C 155.757812 67.871094 158.578125 67.9375 161.210938 68.789062 L 178.699219 74.429688 C 180.667969 75.066406 182.570312 75.941406 184.214844 77.28125 C 184.359375 77.398438 184.527344 77.492188 184.710938 77.550781 C 185.757812 77.886719 186.960938 77.03125 187.273438 75.65625 C 187.507812 74.609375 187.105469 73.570312 186.324219 73.199219" fill="#1c81af"></path></g></g></g></g><g clip-path="url(#310bcc9f03)"><g clip-path="url(#908ef05614)"><g clip-path="url(#00e35791df)"><g clip-path="url(#b7e26de116)"><path fill-rule="nonzero" fill-opacity="1" d="M 115.253906 181.453125 C 113.46875 180.703125 111.589844 180.671875 109.921875 181.210938 C 105.535156 182.621094 100.824219 182.753906 96.425781 181.332031 L 81.703125 176.582031 C 78.210938 175.457031 75.160156 173.328125 72.710938 170.605469 C 72.015625 169.828125 71.085938 169.234375 69.988281 168.9375 C 67.273438 168.207031 64.390625 169.640625 63.371094 172.230469 C 62.191406 175.226562 63.820312 178.554688 66.867188 179.539062 C 67.828125 179.851562 68.8125 179.886719 69.734375 179.695312 C 73.386719 178.933594 77.171875 178.996094 80.730469 180.144531 L 95.292969 184.84375 C 99.695312 186.265625 103.4375 189.125 106.171875 192.832031 C 107.089844 194.078125 108.394531 195.058594 109.984375 195.574219 C 114.160156 196.921875 118.636719 194.507812 119.695312 190.21875 C 120.582031 186.648438 118.675781 182.890625 115.253906 181.453125" fill="#1c81af"></path></g></g></g></g><g clip-path="url(#845071dd8c)"><g clip-path="url(#558e284277)"><g clip-path="url(#8ef7591baf)"><g clip-path="url(#cbc0d2f047)"><path fill-rule="nonzero" fill-opacity="1" d="M 106.363281 218.695312 C 104.753906 218.09375 103.113281 217.953125 101.628906 218.203125 C 96.308594 219.089844 90.59375 218.464844 85.207031 216.726562 L 46.132812 204.117188 C 42.023438 202.789062 38.132812 200.808594 34.933594 198.121094 C 34.167969 197.476562 33.203125 196.984375 32.097656 196.738281 C 29.589844 196.175781 27.109375 197.15625 26.195312 199.070312 C 24.988281 201.589844 26.773438 204.625 29.910156 205.636719 C 30.667969 205.882812 31.433594 205.984375 32.164062 205.957031 C 36.4375 205.808594 40.792969 206.269531 44.976562 207.617188 L 83.976562 220.203125 C 89.40625 221.957031 94.4375 224.8125 98.277344 228.660156 C 99.238281 229.625 100.492188 230.40625 101.949219 230.875 C 106.265625 232.269531 110.691406 230.402344 111.566406 226.71875 C 112.316406 223.5625 110.058594 220.082031 106.363281 218.695312" fill="#1c81af"></path></g></g></g></g><g clip-path="url(#294ae7eb38)"><g clip-path="url(#2b4593c982)"><g clip-path="url(#f11f65fb0e)"><g clip-path="url(#eb546a09df)"><path fill-rule="nonzero" fill-opacity="1" d="M 80.480469 247.476562 C 79.386719 247.050781 78.246094 247.019531 77.214844 247.308594 C 74.371094 248.101562 71.339844 247.929688 68.523438 247.019531 L 46.882812 240.035156 C 44.46875 239.257812 42.234375 237.949219 40.5 236.105469 C 39.929688 235.503906 39.167969 235.054688 38.269531 234.871094 C 36.382812 234.484375 34.441406 235.46875 33.65625 237.207031 C 32.625 239.5 33.847656 242.113281 36.191406 242.871094 C 36.894531 243.097656 37.613281 243.132812 38.285156 243 C 40.769531 242.511719 43.347656 242.769531 45.765625 243.550781 L 67.554688 250.582031 C 70.367188 251.492188 72.796875 253.242188 74.703125 255.492188 C 75.304688 256.199219 76.105469 256.757812 77.058594 257.0625 C 79.867188 257.96875 82.875 256.355469 83.609375 253.484375 C 84.234375 251.015625 82.878906 248.40625 80.480469 247.476562" fill="#1c81af"></path></g></g></g></g><g clip-path="url(#583cce25af)"><g clip-path="url(#170a7670f1)"><g clip-path="url(#cd113e80ed)"><g clip-path="url(#63064afaae)"><path fill-rule="nonzero" fill-opacity="1" d="M 176.222656 54.53125 C 175.429688 56.984375 172.78125 58.324219 170.300781 57.527344 C 167.824219 56.726562 166.457031 54.089844 167.25 51.636719 C 168.042969 49.183594 170.691406 47.84375 173.167969 48.640625 C 175.648438 49.441406 177.015625 52.078125 176.222656 54.53125" fill="#1c81af"></path></g></g></g></g><g clip-path="url(#973fa95958)"><g clip-path="url(#46495f1f60)"><g clip-path="url(#609e2ad8d8)"><g clip-path="url(#85c9eed6bf)"><path fill-rule="nonzero" fill-opacity="1" d="M 189.308594 43.148438 C 188.660156 45.15625 186.492188 46.253906 184.464844 45.597656 C 182.4375 44.945312 181.320312 42.785156 181.96875 40.777344 C 182.617188 38.773438 184.785156 37.675781 186.8125 38.328125 C 188.839844 38.984375 189.957031 41.140625 189.308594 43.148438" fill="#1c81af"></path></g></g></g></g><g clip-path="url(#71bc0847ce)"><g clip-path="url(#055c6a5aa0)"><g clip-path="url(#64620fdab3)"><g clip-path="url(#925d14b9ce)"><path fill-rule="nonzero" fill-opacity="1" d="M 108.164062 91.585938 C 92.957031 122.21875 124.589844 145.5 133.59375 172.726562 C 138.367188 187.171875 137.359375 203.84375 129.394531 216.9375 C 132.125 204.195312 131.800781 190.859375 127.378906 178.488281 C 118.058594 152.410156 80.839844 118.617188 108.164062 91.585938" fill="#1c81af"></path></g></g></g></g><g clip-path="url(#325e2e9a0a)"><g clip-path="url(#e4b6f1579c)"><g clip-path="url(#cd76ab65c6)"><g clip-path="url(#e28ef7c51e)"><path fill-rule="nonzero" fill-opacity="1" d="M 63.835938 271.785156 C 62.824219 274.921875 59.4375 276.632812 56.269531 275.613281 C 53.101562 274.589844 51.355469 271.21875 52.367188 268.085938 C 53.378906 264.949219 56.769531 263.234375 59.933594 264.257812 C 63.101562 265.277344 64.847656 268.648438 63.835938 271.785156" fill="#1c81af"></path></g></g></g></g><g clip-path="url(#a9ec1d6672)"><g clip-path="url(#fa19a62eaf)"><g clip-path="url(#5d1a2b71ee)"><g clip-path="url(#92829c506e)"><g clip-path="url(#f6f6434b51)"><g clip-path="url(#d3cdcc9dea)"><path fill-rule="nonzero" fill-opacity="1" d="M 44 284.375 C 43.277344 286.617188 40.851562 287.84375 38.585938 287.113281 C 36.324219 286.382812 35.074219 283.96875 35.796875 281.726562 C 36.519531 279.484375 38.945312 278.257812 41.210938 278.988281 C 43.476562 279.722656 44.722656 282.132812 44 284.375" fill="#1c81af"></path></g></g></g></g></g></g><g fill-opacity="1" fill="#004aad"><g transform="translate(135.270049, 281.209251)"><g><path d="M 48.34375 1.875 C 41.320312 1.875 34.332031 1.40625 27.375 0.46875 C 20.414062 -0.46875 14.738281 -1.566406 10.34375 -2.828125 L 10.34375 -27.84375 C 14.613281 -26.332031 20.195312 -25.078125 27.09375 -24.078125 C 33.988281 -23.078125 40.695312 -22.578125 47.21875 -22.578125 C 55.875 -22.578125 61.863281 -23.703125 65.1875 -25.953125 C 68.507812 -28.210938 70.171875 -32.289062 70.171875 -38.1875 C 70.171875 -41.695312 69.570312 -44.457031 68.375 -46.46875 C 67.1875 -48.476562 64.929688 -50.265625 61.609375 -51.828125 C 58.285156 -53.398438 53.238281 -55 46.46875 -56.625 C 36.9375 -58.882812 29.628906 -61.425781 24.546875 -64.25 C 19.472656 -67.070312 15.867188 -70.800781 13.734375 -75.4375 C 11.597656 -80.082031 10.53125 -86.351562 10.53125 -94.25 C 10.53125 -107.664062 14.570312 -117.382812 22.65625 -123.40625 C 30.75 -129.425781 42.632812 -132.4375 58.3125 -132.4375 C 65.21875 -132.4375 71.550781 -132 77.3125 -131.125 C 83.082031 -130.25 87.914062 -129.117188 91.8125 -127.734375 L 91.8125 -104.21875 C 88.414062 -105.351562 83.488281 -106.421875 77.03125 -107.421875 C 70.570312 -108.421875 64.710938 -108.921875 59.453125 -108.921875 C 51.796875 -108.921875 46.367188 -107.914062 43.171875 -105.90625 C 39.972656 -103.90625 38.375 -100.269531 38.375 -95 C 38.375 -91.988281 38.90625 -89.632812 39.96875 -87.9375 C 41.039062 -86.25 43.113281 -84.742188 46.1875 -83.421875 C 49.257812 -82.109375 54.054688 -80.640625 60.578125 -79.015625 C 71.109375 -76.378906 79.039062 -73.429688 84.375 -70.171875 C 89.707031 -66.910156 93.40625 -62.769531 95.46875 -57.75 C 97.539062 -52.738281 98.578125 -45.96875 98.578125 -37.4375 C 98.578125 -24.269531 94.59375 -14.425781 86.625 -7.90625 C 78.664062 -1.382812 65.90625 1.875 48.34375 1.875 Z M 48.34375 1.875"></path></g></g></g><g fill-opacity="1" fill="#004aad"><g transform="translate(243.982786, 281.209251)"><g><path d="M 74.125 1.875 C 60.320312 1.875 48.875 -0.0351562 39.78125 -3.859375 C 30.695312 -7.679688 23.613281 -14.484375 18.53125 -24.265625 C 13.445312 -34.046875 10.90625 -47.71875 10.90625 -65.28125 C 10.90625 -89.363281 16.296875 -106.578125 27.078125 -116.921875 C 37.867188 -127.265625 53.488281 -132.4375 73.9375 -132.4375 C 86.226562 -132.4375 96.382812 -130.992188 104.40625 -128.109375 L 104.40625 -103.46875 C 95.75 -106.476562 86.21875 -107.984375 75.8125 -107.984375 C 67.789062 -107.984375 61.332031 -106.632812 56.4375 -103.9375 C 51.539062 -101.238281 47.898438 -96.816406 45.515625 -90.671875 C 43.140625 -84.523438 41.953125 -76.125 41.953125 -65.46875 C 41.953125 -54.300781 43.109375 -45.644531 45.421875 -39.5 C 47.742188 -33.351562 51.285156 -29.054688 56.046875 -26.609375 C 60.816406 -24.171875 67.28125 -22.953125 75.4375 -22.953125 C 86.351562 -22.953125 96.515625 -24.644531 105.921875 -28.03125 L 105.921875 -3.578125 C 101.898438 -1.941406 97.097656 -0.625 91.515625 0.375 C 85.941406 1.375 80.144531 1.875 74.125 1.875 Z M 74.125 1.875"></path></g></g></g><g fill-opacity="1" fill="#004aad"><g transform="translate(357.397645, 281.209251)"><g><path d="M 75.25 1.875 C 60.820312 1.875 48.96875 -0.00390625 39.6875 -3.765625 C 30.40625 -7.523438 23.285156 -14.296875 18.328125 -24.078125 C 13.378906 -33.859375 10.90625 -47.59375 10.90625 -65.28125 C 10.90625 -89.488281 16.453125 -106.734375 27.546875 -117.015625 C 38.648438 -127.296875 54.863281 -132.4375 76.1875 -132.4375 C 82.582031 -132.4375 89.039062 -132 95.5625 -131.125 C 102.082031 -130.25 107.351562 -129.117188 111.375 -127.734375 L 111.375 -102.71875 C 101.71875 -106.226562 90.742188 -107.984375 78.453125 -107.984375 C 69.796875 -107.984375 62.863281 -106.695312 57.65625 -104.125 C 52.457031 -101.550781 48.570312 -97.160156 46 -90.953125 C 43.425781 -84.742188 42.140625 -76.1875 42.140625 -65.28125 C 42.140625 -53.738281 43.265625 -44.894531 45.515625 -38.75 C 47.773438 -32.601562 51.382812 -28.304688 56.34375 -25.859375 C 61.300781 -23.421875 68.226562 -22.203125 77.125 -22.203125 C 83.144531 -22.203125 87.785156 -22.578125 91.046875 -23.328125 L 91.046875 -51.546875 L 68.859375 -51.546875 L 68.859375 -75.4375 L 117.578125 -75.4375 L 117.578125 -3.953125 C 112.429688 -2.316406 106.03125 -0.9375 98.375 0.1875 C 90.726562 1.3125 83.019531 1.875 75.25 1.875 Z M 75.25 1.875"></path></g></g></g><g fill-opacity="1" fill="#004aad"><g transform="translate(487.740101, 281.209251)"><g><path d="M 100.265625 -105.53125 L 66.03125 -105.53125 L 66.03125 0 L 37.625 0 L 37.625 -105.53125 L 3.390625 -105.53125 L 3.390625 -130.5625 L 100.265625 -130.5625 Z M 100.265625 -105.53125"></path></g></g></g><g fill-opacity="1" fill="#004aad"><g transform="translate(591.374559, 281.209251)"><g></g></g></g><g fill-opacity="1" fill="#004aad"><g transform="translate(639.712228, 281.209251)"><g><path d="M 9.59375 -24.453125 C 25.394531 -37.117188 37.523438 -47.367188 45.984375 -55.203125 C 54.453125 -63.046875 60.503906 -69.757812 64.140625 -75.34375 C 67.785156 -80.925781 69.609375 -86.222656 69.609375 -91.234375 C 69.609375 -98.015625 67.691406 -102.8125 63.859375 -105.625 C 60.035156 -108.445312 54.363281 -109.859375 46.84375 -109.859375 C 37.4375 -109.859375 27.65625 -108.226562 17.5 -104.96875 L 17.5 -127.734375 C 27.28125 -130.867188 38.816406 -132.4375 52.109375 -132.4375 C 66.660156 -132.4375 77.914062 -129.332031 85.875 -123.125 C 93.84375 -116.914062 97.828125 -107.664062 97.828125 -95.375 C 97.828125 -87.851562 96.632812 -81.175781 94.25 -75.34375 C 91.863281 -69.507812 87.441406 -63.144531 80.984375 -56.25 C 74.523438 -49.351562 64.898438 -40.828125 52.109375 -30.671875 L 43.828125 -24.078125 L 43.828125 -22.578125 L 100.828125 -22.578125 L 100.828125 0 L 9.59375 0 Z M 9.59375 -24.453125"></path></g></g></g><g fill-opacity="1" fill="#004aad"><g transform="translate(750.682011, 281.209251)"><g><path d="M 55.5 1.875 C 45.21875 1.875 36.625 -0.0976562 29.71875 -4.046875 C 22.820312 -7.992188 17.460938 -14.890625 13.640625 -24.734375 C 9.816406 -34.578125 7.90625 -48.15625 7.90625 -65.46875 C 7.90625 -82.769531 9.816406 -96.3125 13.640625 -106.09375 C 17.460938 -115.882812 22.820312 -122.722656 29.71875 -126.609375 C 36.625 -130.492188 45.21875 -132.4375 55.5 -132.4375 C 65.78125 -132.4375 74.335938 -130.492188 81.171875 -126.609375 C 88.003906 -122.722656 93.300781 -115.882812 97.0625 -106.09375 C 100.832031 -96.3125 102.71875 -82.769531 102.71875 -65.46875 C 102.71875 -48.15625 100.832031 -34.546875 97.0625 -24.640625 C 93.300781 -14.734375 88.003906 -7.835938 81.171875 -3.953125 C 74.335938 -0.0664062 65.78125 1.875 55.5 1.875 Z M 55.5 -21.640625 C 60.632812 -21.640625 64.644531 -22.859375 67.53125 -25.296875 C 70.414062 -27.742188 72.515625 -32.070312 73.828125 -38.28125 C 75.148438 -44.488281 75.8125 -53.488281 75.8125 -65.28125 C 75.8125 -76.945312 75.148438 -85.914062 73.828125 -92.1875 C 72.515625 -98.457031 70.414062 -102.84375 67.53125 -105.34375 C 64.644531 -107.851562 60.632812 -109.109375 55.5 -109.109375 C 50.351562 -109.109375 46.335938 -107.851562 43.453125 -105.34375 C 40.566406 -102.84375 38.460938 -98.457031 37.140625 -92.1875 C 35.828125 -85.914062 35.171875 -76.945312 35.171875 -65.28125 C 35.171875 -53.488281 35.828125 -44.488281 37.140625 -38.28125 C 38.460938 -32.070312 40.566406 -27.742188 43.453125 -25.296875 C 46.335938 -22.859375 50.351562 -21.640625 55.5 -21.640625 Z M 55.5 -21.640625"></path></g></g></g><g fill-opacity="1" fill="#004aad"><g transform="translate(861.651793, 281.209251)"><g><path d="M 9.59375 -24.453125 C 25.394531 -37.117188 37.523438 -47.367188 45.984375 -55.203125 C 54.453125 -63.046875 60.503906 -69.757812 64.140625 -75.34375 C 67.785156 -80.925781 69.609375 -86.222656 69.609375 -91.234375 C 69.609375 -98.015625 67.691406 -102.8125 63.859375 -105.625 C 60.035156 -108.445312 54.363281 -109.859375 46.84375 -109.859375 C 37.4375 -109.859375 27.65625 -108.226562 17.5 -104.96875 L 17.5 -127.734375 C 27.28125 -130.867188 38.816406 -132.4375 52.109375 -132.4375 C 66.660156 -132.4375 77.914062 -129.332031 85.875 -123.125 C 93.84375 -116.914062 97.828125 -107.664062 97.828125 -95.375 C 97.828125 -87.851562 96.632812 -81.175781 94.25 -75.34375 C 91.863281 -69.507812 87.441406 -63.144531 80.984375 -56.25 C 74.523438 -49.351562 64.898438 -40.828125 52.109375 -30.671875 L 43.828125 -24.078125 L 43.828125 -22.578125 L 100.828125 -22.578125 L 100.828125 0 L 9.59375 0 Z M 9.59375 -24.453125"></path></g></g></g><g fill-opacity="1" fill="#004aad"><g transform="translate(972.621575, 281.209251)"><g><path d="M 103.46875 -27.84375 L 89.171875 -27.84375 L 89.171875 0 L 63.015625 0 L 63.015625 -27.84375 L 4.890625 -27.84375 L 4.890625 -54.5625 L 57.375 -130.5625 L 89.171875 -130.5625 L 89.171875 -50.984375 L 103.46875 -50.984375 Z M 63.015625 -50.984375 L 63.015625 -102.34375 L 61.890625 -102.34375 L 28.03125 -52.109375 L 28.03125 -50.984375 Z M 63.015625 -50.984375"></path></g></g></g></svg>