<svg version="1.0" preserveAspectRatio="xMidYMid meet" height="500" viewBox="0 0 375 374.999991" zoomAndPan="magnify" width="500" xmlns:xlink="http://www.w3.org/1999/xlink" xmlns="http://www.w3.org/2000/svg"><defs><g></g><clipPath id="8b3e1cc37f"><path clip-rule="nonzero" d="M 64 54 L 77 54 L 77 61 L 64 61 Z M 64 54"></path></clipPath><clipPath id="5c450f1497"><path clip-rule="nonzero" d="M 58.324219 31.324219 L 89.015625 41.230469 L 68.28125 105.46875 L 37.589844 95.5625 Z M 58.324219 31.324219"></path></clipPath><clipPath id="86a67a83de"><path clip-rule="nonzero" d="M 58.324219 31.324219 L 89.015625 41.230469 L 68.28125 105.46875 L 37.589844 95.5625 Z M 58.324219 31.324219"></path></clipPath><clipPath id="a6ac6b54f0"><path clip-rule="nonzero" d="M 58.324219 31.324219 L 89.015625 41.230469 L 68.28125 105.46875 L 37.589844 95.5625 Z M 58.324219 31.324219"></path></clipPath><clipPath id="73c4b78cc1"><path clip-rule="nonzero" d="M 67 47 L 85 47 L 85 55 L 67 55 Z M 67 47"></path></clipPath><clipPath id="fe0aa445e0"><path clip-rule="nonzero" d="M 58.324219 31.324219 L 89.015625 41.230469 L 68.28125 105.46875 L 37.589844 95.5625 Z M 58.324219 31.324219"></path></clipPath><clipPath id="c2532e83e6"><path clip-rule="nonzero" d="M 58.324219 31.324219 L 89.015625 41.230469 L 68.28125 105.46875 L 37.589844 95.5625 Z M 58.324219 31.324219"></path></clipPath><clipPath id="082a5090a0"><path clip-rule="nonzero" d="M 58.324219 31.324219 L 89.015625 41.230469 L 68.28125 105.46875 L 37.589844 95.5625 Z M 58.324219 31.324219"></path></clipPath><clipPath id="5eff7dfb54"><path clip-rule="nonzero" d="M 67.773438 47.464844 L 85.210938 53.089844 L 84.535156 55.195312 L 67.09375 49.566406 Z M 67.773438 47.464844"></path></clipPath><clipPath id="5b15e12e17"><path clip-rule="nonzero" d="M 67.773438 47.464844 L 85.179688 53.078125 L 84.5 55.183594 L 67.09375 49.566406 Z M 67.773438 47.464844"></path></clipPath><clipPath id="b19a0d2a1c"><path clip-rule="nonzero" d="M 73 44 L 83 44 L 83 49 L 73 49 Z M 73 44"></path></clipPath><clipPath id="0e9ddb50ed"><path clip-rule="nonzero" d="M 58.324219 31.324219 L 89.015625 41.230469 L 68.28125 105.46875 L 37.589844 95.5625 Z M 58.324219 31.324219"></path></clipPath><clipPath id="f6b25fd1f4"><path clip-rule="nonzero" d="M 58.324219 31.324219 L 89.015625 41.230469 L 68.28125 105.46875 L 37.589844 95.5625 Z M 58.324219 31.324219"></path></clipPath><clipPath id="9ab3b6b85a"><path clip-rule="nonzero" d="M 58.324219 31.324219 L 89.015625 41.230469 L 68.28125 105.46875 L 37.589844 95.5625 Z M 58.324219 31.324219"></path></clipPath><clipPath id="61fbbc11b1"><path clip-rule="nonzero" d="M 52 70 L 66 70 L 66 77 L 52 77 Z M 52 70"></path></clipPath><clipPath id="b045e1464a"><path clip-rule="nonzero" d="M 58.324219 31.324219 L 89.015625 41.230469 L 68.28125 105.46875 L 37.589844 95.5625 Z M 58.324219 31.324219"></path></clipPath><clipPath id="c77a6e10b3"><path clip-rule="nonzero" d="M 58.324219 31.324219 L 89.015625 41.230469 L 68.28125 105.46875 L 37.589844 95.5625 Z M 58.324219 31.324219"></path></clipPath><clipPath id="edb39c1249"><path clip-rule="nonzero" d="M 58.324219 31.324219 L 89.015625 41.230469 L 68.28125 105.46875 L 37.589844 95.5625 Z M 58.324219 31.324219"></path></clipPath><clipPath id="d567cec6e8"><path clip-rule="nonzero" d="M 43 76 L 65 76 L 65 86 L 43 86 Z M 43 76"></path></clipPath><clipPath id="8549c28fcf"><path clip-rule="nonzero" d="M 58.324219 31.324219 L 89.015625 41.230469 L 68.28125 105.46875 L 37.589844 95.5625 Z M 58.324219 31.324219"></path></clipPath><clipPath id="810c122e00"><path clip-rule="nonzero" d="M 58.324219 31.324219 L 89.015625 41.230469 L 68.28125 105.46875 L 37.589844 95.5625 Z M 58.324219 31.324219"></path></clipPath><clipPath id="6bf718b730"><path clip-rule="nonzero" d="M 58.324219 31.324219 L 89.015625 41.230469 L 68.28125 105.46875 L 37.589844 95.5625 Z M 58.324219 31.324219"></path></clipPath><clipPath id="e1aaae49b3"><path clip-rule="nonzero" d="M 45 85 L 58 85 L 58 92 L 45 92 Z M 45 85"></path></clipPath><clipPath id="1cead9f6c5"><path clip-rule="nonzero" d="M 58.324219 31.324219 L 89.015625 41.230469 L 68.28125 105.46875 L 37.589844 95.5625 Z M 58.324219 31.324219"></path></clipPath><clipPath id="33792c9786"><path clip-rule="nonzero" d="M 58.324219 31.324219 L 89.015625 41.230469 L 68.28125 105.46875 L 37.589844 95.5625 Z M 58.324219 31.324219"></path></clipPath><clipPath id="53ce846059"><path clip-rule="nonzero" d="M 58.324219 31.324219 L 89.015625 41.230469 L 68.28125 105.46875 L 37.589844 95.5625 Z M 58.324219 31.324219"></path></clipPath><clipPath id="5ebbc4910a"><path clip-rule="nonzero" d="M 77 41 L 80 41 L 80 44 L 77 44 Z M 77 41"></path></clipPath><clipPath id="1e9e88b159"><path clip-rule="nonzero" d="M 58.324219 31.324219 L 89.015625 41.230469 L 68.28125 105.46875 L 37.589844 95.5625 Z M 58.324219 31.324219"></path></clipPath><clipPath id="563a448a55"><path clip-rule="nonzero" d="M 58.324219 31.324219 L 89.015625 41.230469 L 68.28125 105.46875 L 37.589844 95.5625 Z M 58.324219 31.324219"></path></clipPath><clipPath id="ea36e4d98b"><path clip-rule="nonzero" d="M 58.324219 31.324219 L 89.015625 41.230469 L 68.28125 105.46875 L 37.589844 95.5625 Z M 58.324219 31.324219"></path></clipPath><clipPath id="3f48f36a51"><path clip-rule="nonzero" d="M 80 38 L 83 38 L 83 41 L 80 41 Z M 80 38"></path></clipPath><clipPath id="77899c61b1"><path clip-rule="nonzero" d="M 58.324219 31.324219 L 89.015625 41.230469 L 68.28125 105.46875 L 37.589844 95.5625 Z M 58.324219 31.324219"></path></clipPath><clipPath id="c4d12e7fde"><path clip-rule="nonzero" d="M 58.324219 31.324219 L 89.015625 41.230469 L 68.28125 105.46875 L 37.589844 95.5625 Z M 58.324219 31.324219"></path></clipPath><clipPath id="4e507905c0"><path clip-rule="nonzero" d="M 58.324219 31.324219 L 89.015625 41.230469 L 68.28125 105.46875 L 37.589844 95.5625 Z M 58.324219 31.324219"></path></clipPath><clipPath id="c90ea7f878"><path clip-rule="nonzero" d="M 60 51 L 70 51 L 70 82 L 60 82 Z M 60 51"></path></clipPath><clipPath id="99a9d03531"><path clip-rule="nonzero" d="M 58.324219 31.324219 L 89.015625 41.230469 L 68.28125 105.46875 L 37.589844 95.5625 Z M 58.324219 31.324219"></path></clipPath><clipPath id="f8872c9051"><path clip-rule="nonzero" d="M 58.324219 31.324219 L 89.015625 41.230469 L 68.28125 105.46875 L 37.589844 95.5625 Z M 58.324219 31.324219"></path></clipPath><clipPath id="9413fd820c"><path clip-rule="nonzero" d="M 58.324219 31.324219 L 89.015625 41.230469 L 68.28125 105.46875 L 37.589844 95.5625 Z M 58.324219 31.324219"></path></clipPath><clipPath id="97e8fd3f1c"><path clip-rule="nonzero" d="M 49 92 L 53 92 L 53 96 L 49 96 Z M 49 92"></path></clipPath><clipPath id="e02c408caa"><path clip-rule="nonzero" d="M 58.324219 31.324219 L 89.015625 41.230469 L 68.28125 105.46875 L 37.589844 95.5625 Z M 58.324219 31.324219"></path></clipPath><clipPath id="5a0075bfb0"><path clip-rule="nonzero" d="M 58.324219 31.324219 L 89.015625 41.230469 L 68.28125 105.46875 L 37.589844 95.5625 Z M 58.324219 31.324219"></path></clipPath><clipPath id="bfcd005237"><path clip-rule="nonzero" d="M 58.324219 31.324219 L 89.015625 41.230469 L 68.28125 105.46875 L 37.589844 95.5625 Z M 58.324219 31.324219"></path></clipPath><clipPath id="0d6ac63c3c"><path clip-rule="nonzero" d="M 45 96 L 48 96 L 48 99 L 45 99 Z M 45 96"></path></clipPath><clipPath id="75ba1a275e"><path clip-rule="nonzero" d="M 58.324219 31.324219 L 89.015625 41.230469 L 68.28125 105.46875 L 37.589844 95.5625 Z M 58.324219 31.324219"></path></clipPath><clipPath id="22f5d3e3a5"><path clip-rule="nonzero" d="M 58.324219 31.324219 L 89.015625 41.230469 L 68.28125 105.46875 L 37.589844 95.5625 Z M 58.324219 31.324219"></path></clipPath><clipPath id="62ddf7fa06"><path clip-rule="nonzero" d="M 58.324219 31.324219 L 89.015625 41.230469 L 68.28125 105.46875 L 37.589844 95.5625 Z M 58.324219 31.324219"></path></clipPath><clipPath id="ecb53640fd"><path clip-rule="nonzero" d="M 46.167969 96.144531 L 48.160156 96.785156 L 47.503906 98.824219 L 45.507812 98.183594 Z M 46.167969 96.144531"></path></clipPath><clipPath id="64cb125c21"><path clip-rule="nonzero" d="M 46.167969 96.144531 L 48.160156 96.785156 L 47.519531 98.769531 L 45.527344 98.128906 Z M 46.167969 96.144531"></path></clipPath></defs><rect fill-opacity="1" height="449.999989" y="-37.499999" fill="#ffffff" width="450" x="-37.5"></rect><rect fill-opacity="1" height="449.999989" y="-37.499999" fill="#ffffff" width="450" x="-37.5"></rect><path fill-rule="nonzero" fill-opacity="1" d="M 71.128906 111.53125 L 296.046875 111.53125 L 296.046875 112.28125 L 71.128906 112.28125 Z M 71.128906 111.53125" fill="#004aad"></path><g fill-opacity="1" fill="#004aad"><g transform="translate(71.13036, 110.783196)"><g><path d="M 3.6875 0.140625 C 3.125 0.140625 2.566406 0.0976562 2.015625 0.015625 C 1.472656 -0.0546875 1.066406 -0.140625 0.796875 -0.234375 L 0.796875 -1.40625 C 1.117188 -1.289062 1.546875 -1.1875 2.078125 -1.09375 C 2.609375 -1.007812 3.144531 -0.96875 3.6875 -0.96875 C 4.425781 -0.96875 4.976562 -1.09375 5.34375 -1.34375 C 5.707031 -1.59375 5.890625 -2.015625 5.890625 -2.609375 C 5.890625 -3.015625 5.828125 -3.328125 5.703125 -3.546875 C 5.585938 -3.773438 5.375 -3.960938 5.0625 -4.109375 C 4.757812 -4.253906 4.289062 -4.398438 3.65625 -4.546875 C 2.945312 -4.710938 2.398438 -4.894531 2.015625 -5.09375 C 1.640625 -5.289062 1.363281 -5.554688 1.1875 -5.890625 C 1.019531 -6.222656 0.9375 -6.664062 0.9375 -7.21875 C 0.9375 -8.101562 1.203125 -8.765625 1.734375 -9.203125 C 2.265625 -9.640625 3.078125 -9.859375 4.171875 -9.859375 C 4.628906 -9.859375 5.085938 -9.820312 5.546875 -9.75 C 6.015625 -9.675781 6.367188 -9.59375 6.609375 -9.5 L 6.609375 -8.359375 C 6.316406 -8.472656 5.941406 -8.566406 5.484375 -8.640625 C 5.035156 -8.710938 4.601562 -8.75 4.1875 -8.75 C 3.695312 -8.75 3.3125 -8.707031 3.03125 -8.625 C 2.75 -8.539062 2.535156 -8.390625 2.390625 -8.171875 C 2.253906 -7.953125 2.1875 -7.632812 2.1875 -7.21875 C 2.1875 -6.90625 2.234375 -6.65625 2.328125 -6.46875 C 2.421875 -6.289062 2.601562 -6.132812 2.875 -6 C 3.15625 -5.875 3.585938 -5.738281 4.171875 -5.59375 C 4.929688 -5.414062 5.519531 -5.21875 5.9375 -5 C 6.351562 -4.78125 6.65625 -4.484375 6.84375 -4.109375 C 7.03125 -3.742188 7.125 -3.25 7.125 -2.625 C 7.125 -0.78125 5.976562 0.140625 3.6875 0.140625 Z M 3.6875 0.140625"></path></g></g></g><g fill-opacity="1" fill="#004aad"><g transform="translate(79.049934, 110.783196)"><g><path d="M 1.28125 -9.71875 L 2.546875 -9.71875 L 2.546875 0 L 1.28125 0 Z M 1.28125 -9.71875"></path></g></g></g><g fill-opacity="1" fill="#004aad"><g transform="translate(82.883796, 110.783196)"><g><path d="M 1.28125 -9.71875 L 3.265625 -9.71875 L 7.6875 -1.65625 L 7.765625 -1.65625 L 7.765625 -9.71875 L 9.03125 -9.71875 L 9.03125 0 L 7.359375 0 L 2.609375 -8.546875 L 2.515625 -8.546875 L 2.515625 0 L 1.28125 0 Z M 1.28125 -9.71875"></path></g></g></g><g fill-opacity="1" fill="#004aad"><g transform="translate(93.196044, 110.783196)"><g><path d="M 5.5625 0.140625 C 4.539062 0.140625 3.703125 0 3.046875 -0.28125 C 2.398438 -0.5625 1.898438 -1.066406 1.546875 -1.796875 C 1.191406 -2.523438 1.015625 -3.546875 1.015625 -4.859375 C 1.015625 -6.660156 1.410156 -7.941406 2.203125 -8.703125 C 2.992188 -9.472656 4.160156 -9.859375 5.703125 -9.859375 C 6.160156 -9.859375 6.625 -9.820312 7.09375 -9.75 C 7.570312 -9.675781 7.953125 -9.585938 8.234375 -9.484375 L 8.234375 -8.359375 C 7.554688 -8.617188 6.726562 -8.75 5.75 -8.75 C 4.976562 -8.75 4.34375 -8.640625 3.84375 -8.421875 C 3.351562 -8.203125 2.976562 -7.804688 2.71875 -7.234375 C 2.457031 -6.671875 2.328125 -5.878906 2.328125 -4.859375 C 2.328125 -3.785156 2.453125 -2.960938 2.703125 -2.390625 C 2.953125 -1.828125 3.316406 -1.445312 3.796875 -1.25 C 4.273438 -1.050781 4.910156 -0.953125 5.703125 -0.953125 C 5.953125 -0.953125 6.222656 -0.96875 6.515625 -1 C 6.816406 -1.03125 7.070312 -1.078125 7.28125 -1.140625 L 7.28125 -4.140625 L 5.328125 -4.140625 L 5.328125 -5.203125 L 8.484375 -5.203125 L 8.484375 -0.265625 C 7.628906 0.00390625 6.65625 0.140625 5.5625 0.140625 Z M 5.5625 0.140625"></path></g></g></g><g fill-opacity="1" fill="#004aad"><g transform="translate(102.780699, 110.783196)"><g><path d="M 6.796875 -2.890625 L 2.5 -2.890625 L 1.4375 0 L 0.15625 0 L 3.84375 -9.71875 L 5.515625 -9.71875 L 9.1875 0 L 7.859375 0 Z M 6.390625 -4.015625 L 4.765625 -8.546875 L 4.59375 -8.546875 L 2.921875 -4.015625 Z M 6.390625 -4.015625"></path></g></g></g><g fill-opacity="1" fill="#004aad"><g transform="translate(112.113492, 110.783196)"><g><path d="M 1.28125 -9.71875 L 3.984375 -9.71875 C 4.890625 -9.71875 5.601562 -9.609375 6.125 -9.390625 C 6.644531 -9.179688 7.007812 -8.851562 7.21875 -8.40625 C 7.4375 -7.957031 7.546875 -7.359375 7.546875 -6.609375 C 7.546875 -5.835938 7.421875 -5.222656 7.171875 -4.765625 C 6.929688 -4.304688 6.550781 -3.96875 6.03125 -3.75 C 5.519531 -3.539062 4.835938 -3.4375 3.984375 -3.4375 L 2.546875 -3.4375 L 2.546875 0 L 1.28125 0 Z M 3.875 -4.5 C 4.488281 -4.5 4.96875 -4.5625 5.3125 -4.6875 C 5.65625 -4.8125 5.898438 -5.023438 6.046875 -5.328125 C 6.191406 -5.628906 6.265625 -6.054688 6.265625 -6.609375 C 6.265625 -7.109375 6.1875 -7.503906 6.03125 -7.796875 C 5.882812 -8.085938 5.640625 -8.296875 5.296875 -8.421875 C 4.953125 -8.554688 4.476562 -8.625 3.875 -8.625 L 2.546875 -8.625 L 2.546875 -4.5 Z M 3.875 -4.5"></path></g></g></g><g fill-opacity="1" fill="#004aad"><g transform="translate(120.466832, 110.783196)"><g><path d="M 5.1875 0.140625 C 4.226562 0.140625 3.445312 -0.00390625 2.84375 -0.296875 C 2.238281 -0.597656 1.78125 -1.113281 1.46875 -1.84375 C 1.164062 -2.570312 1.015625 -3.578125 1.015625 -4.859375 C 1.015625 -6.140625 1.164062 -7.140625 1.46875 -7.859375 C 1.78125 -8.585938 2.238281 -9.101562 2.84375 -9.40625 C 3.445312 -9.707031 4.226562 -9.859375 5.1875 -9.859375 C 6.15625 -9.859375 6.941406 -9.707031 7.546875 -9.40625 C 8.148438 -9.101562 8.601562 -8.585938 8.90625 -7.859375 C 9.21875 -7.140625 9.375 -6.140625 9.375 -4.859375 C 9.375 -3.578125 9.21875 -2.570312 8.90625 -1.84375 C 8.601562 -1.113281 8.148438 -0.597656 7.546875 -0.296875 C 6.941406 -0.00390625 6.15625 0.140625 5.1875 0.140625 Z M 5.1875 -0.9375 C 5.976562 -0.9375 6.578125 -1.066406 6.984375 -1.328125 C 7.398438 -1.597656 7.6875 -2.007812 7.84375 -2.5625 C 8 -3.113281 8.078125 -3.878906 8.078125 -4.859375 C 8.078125 -5.804688 8 -6.5625 7.84375 -7.125 C 7.6875 -7.6875 7.398438 -8.101562 6.984375 -8.375 C 6.578125 -8.65625 5.976562 -8.796875 5.1875 -8.796875 C 4.414062 -8.796875 3.820312 -8.65625 3.40625 -8.375 C 2.988281 -8.101562 2.703125 -7.6875 2.546875 -7.125 C 2.398438 -6.5625 2.328125 -5.804688 2.328125 -4.859375 C 2.328125 -3.878906 2.398438 -3.113281 2.546875 -2.5625 C 2.703125 -2.007812 2.984375 -1.597656 3.390625 -1.328125 C 3.804688 -1.066406 4.40625 -0.9375 5.1875 -0.9375 Z M 5.1875 -0.9375"></path></g></g></g><g fill-opacity="1" fill="#004aad"><g transform="translate(130.863033, 110.783196)"><g><path d="M 6.90625 0 L 4.234375 -3.921875 C 4.128906 -3.910156 3.96875 -3.90625 3.75 -3.90625 L 2.546875 -3.90625 L 2.546875 0 L 1.28125 0 L 1.28125 -9.71875 L 3.75 -9.71875 C 4.675781 -9.71875 5.40625 -9.625 5.9375 -9.4375 C 6.46875 -9.257812 6.851562 -8.960938 7.09375 -8.546875 C 7.34375 -8.128906 7.46875 -7.5625 7.46875 -6.84375 C 7.46875 -6.007812 7.304688 -5.375 6.984375 -4.9375 C 6.660156 -4.507812 6.15625 -4.21875 5.46875 -4.0625 L 8.390625 0 Z M 3.640625 -4.953125 C 4.296875 -4.953125 4.800781 -4.992188 5.15625 -5.078125 C 5.507812 -5.171875 5.769531 -5.351562 5.9375 -5.625 C 6.101562 -5.894531 6.1875 -6.300781 6.1875 -6.84375 C 6.1875 -7.332031 6.097656 -7.703125 5.921875 -7.953125 C 5.753906 -8.210938 5.488281 -8.390625 5.125 -8.484375 C 4.769531 -8.578125 4.273438 -8.625 3.640625 -8.625 L 2.546875 -8.625 L 2.546875 -4.953125 Z M 3.640625 -4.953125"></path></g></g></g><g fill-opacity="1" fill="#004aad"><g transform="translate(139.454238, 110.783196)"><g><path d="M 7.046875 -1.140625 L 7.046875 0 L 1.28125 0 L 1.28125 -9.71875 L 6.6875 -9.71875 L 6.6875 -8.59375 L 2.546875 -8.59375 L 2.546875 -5.59375 L 6.40625 -5.59375 L 6.40625 -4.515625 L 2.546875 -4.515625 L 2.546875 -1.140625 Z M 7.046875 -1.140625"></path></g></g></g><g fill-opacity="1" fill="#004aad"><g transform="translate(147.233897, 110.783196)"><g></g></g></g><g fill-opacity="1" fill="#004aad"><g transform="translate(150.829894, 110.783196)"><g><path d="M 5.4375 0.140625 C 4.46875 0.140625 3.664062 0 3.03125 -0.28125 C 2.394531 -0.570312 1.898438 -1.078125 1.546875 -1.796875 C 1.191406 -2.523438 1.015625 -3.546875 1.015625 -4.859375 C 1.015625 -6.648438 1.398438 -7.929688 2.171875 -8.703125 C 2.953125 -9.472656 4.085938 -9.859375 5.578125 -9.859375 C 6.390625 -9.859375 7.085938 -9.765625 7.671875 -9.578125 L 7.671875 -8.40625 C 7.078125 -8.632812 6.382812 -8.75 5.59375 -8.75 C 4.84375 -8.75 4.226562 -8.625 3.75 -8.375 C 3.269531 -8.132812 2.910156 -7.726562 2.671875 -7.15625 C 2.441406 -6.59375 2.328125 -5.835938 2.328125 -4.890625 C 2.328125 -3.867188 2.4375 -3.078125 2.65625 -2.515625 C 2.882812 -1.953125 3.222656 -1.554688 3.671875 -1.328125 C 4.117188 -1.109375 4.71875 -1 5.46875 -1 C 5.90625 -1 6.300781 -1.023438 6.65625 -1.078125 C 7.019531 -1.140625 7.394531 -1.238281 7.78125 -1.375 L 7.78125 -0.28125 C 7.488281 -0.144531 7.140625 -0.0390625 6.734375 0.03125 C 6.328125 0.101562 5.894531 0.140625 5.4375 0.140625 Z M 5.4375 0.140625"></path></g></g></g><g fill-opacity="1" fill="#004aad"><g transform="translate(159.211214, 110.783196)"><g><path d="M 7.046875 -1.140625 L 7.046875 0 L 1.28125 0 L 1.28125 -9.71875 L 6.6875 -9.71875 L 6.6875 -8.59375 L 2.546875 -8.59375 L 2.546875 -5.59375 L 6.40625 -5.59375 L 6.40625 -4.515625 L 2.546875 -4.515625 L 2.546875 -1.140625 Z M 7.046875 -1.140625"></path></g></g></g><g fill-opacity="1" fill="#004aad"><g transform="translate(166.990873, 110.783196)"><g><path d="M 6.765625 -1.140625 L 6.765625 0 L 1.28125 0 L 1.28125 -9.71875 L 2.546875 -9.71875 L 2.546875 -1.140625 Z M 6.765625 -1.140625"></path></g></g></g><g fill-opacity="1" fill="#004aad"><g transform="translate(174.084916, 110.783196)"><g><path d="M 6.765625 -1.140625 L 6.765625 0 L 1.28125 0 L 1.28125 -9.71875 L 2.546875 -9.71875 L 2.546875 -1.140625 Z M 6.765625 -1.140625"></path></g></g></g><g fill-opacity="1" fill="#004aad"><g transform="translate(181.17896, 110.783196)"><g></g></g></g><g fill-opacity="1" fill="#004aad"><g transform="translate(184.774956, 110.783196)"><g><path d="M 7.203125 -1.8125 C 7.441406 -1.539062 7.6875 -1.347656 7.9375 -1.234375 C 8.195312 -1.117188 8.535156 -1.0625 8.953125 -1.0625 L 8.953125 0 C 8.265625 0 7.738281 -0.0546875 7.375 -0.171875 C 7.019531 -0.296875 6.671875 -0.554688 6.328125 -0.953125 C 5.878906 -0.566406 5.425781 -0.285156 4.96875 -0.109375 C 4.507812 0.0546875 4.035156 0.140625 3.546875 0.140625 C 2.941406 0.140625 2.410156 0.03125 1.953125 -0.1875 C 1.503906 -0.40625 1.15625 -0.710938 0.90625 -1.109375 C 0.664062 -1.515625 0.546875 -1.976562 0.546875 -2.5 C 0.546875 -3.09375 0.710938 -3.628906 1.046875 -4.109375 C 1.378906 -4.585938 1.9375 -5.039062 2.71875 -5.46875 C 2.425781 -5.875 2.226562 -6.226562 2.125 -6.53125 C 2.019531 -6.84375 1.96875 -7.1875 1.96875 -7.5625 C 1.96875 -8.007812 2.070312 -8.40625 2.28125 -8.75 C 2.488281 -9.101562 2.773438 -9.375 3.140625 -9.5625 C 3.503906 -9.757812 3.914062 -9.859375 4.375 -9.859375 C 5.050781 -9.859375 5.585938 -9.660156 5.984375 -9.265625 C 6.378906 -8.867188 6.578125 -8.367188 6.578125 -7.765625 C 6.578125 -7.210938 6.40625 -6.738281 6.0625 -6.34375 C 5.71875 -5.945312 5.164062 -5.5625 4.40625 -5.1875 L 6.453125 -2.6875 C 6.953125 -3.425781 7.234375 -4.210938 7.296875 -5.046875 L 8.515625 -5.046875 C 8.421875 -4.390625 8.273438 -3.800781 8.078125 -3.28125 C 7.878906 -2.757812 7.585938 -2.269531 7.203125 -1.8125 Z M 4.34375 -8.8125 C 4.019531 -8.8125 3.753906 -8.695312 3.546875 -8.46875 C 3.335938 -8.25 3.234375 -7.960938 3.234375 -7.609375 C 3.234375 -7.335938 3.273438 -7.070312 3.359375 -6.8125 C 3.441406 -6.5625 3.585938 -6.285156 3.796875 -5.984375 C 4.347656 -6.253906 4.742188 -6.515625 4.984375 -6.765625 C 5.222656 -7.023438 5.34375 -7.34375 5.34375 -7.71875 C 5.34375 -8.039062 5.25 -8.300781 5.0625 -8.5 C 4.882812 -8.707031 4.644531 -8.8125 4.34375 -8.8125 Z M 1.8125 -2.640625 C 1.8125 -2.117188 1.984375 -1.703125 2.328125 -1.390625 C 2.679688 -1.085938 3.140625 -0.9375 3.703125 -0.9375 C 4.066406 -0.9375 4.398438 -1 4.703125 -1.125 C 5.015625 -1.25 5.335938 -1.460938 5.671875 -1.765625 L 3.34375 -4.65625 C 2.800781 -4.34375 2.410156 -4.019531 2.171875 -3.6875 C 1.929688 -3.363281 1.8125 -3.015625 1.8125 -2.640625 Z M 1.8125 -2.640625"></path></g></g></g><g fill-opacity="1" fill="#004aad"><g transform="translate(193.729957, 110.783196)"><g></g></g></g><g fill-opacity="1" fill="#004aad"><g transform="translate(197.325954, 110.783196)"><g><path d="M 5.5625 0.140625 C 4.539062 0.140625 3.703125 0 3.046875 -0.28125 C 2.398438 -0.5625 1.898438 -1.066406 1.546875 -1.796875 C 1.191406 -2.523438 1.015625 -3.546875 1.015625 -4.859375 C 1.015625 -6.660156 1.410156 -7.941406 2.203125 -8.703125 C 2.992188 -9.472656 4.160156 -9.859375 5.703125 -9.859375 C 6.160156 -9.859375 6.625 -9.820312 7.09375 -9.75 C 7.570312 -9.675781 7.953125 -9.585938 8.234375 -9.484375 L 8.234375 -8.359375 C 7.554688 -8.617188 6.726562 -8.75 5.75 -8.75 C 4.976562 -8.75 4.34375 -8.640625 3.84375 -8.421875 C 3.351562 -8.203125 2.976562 -7.804688 2.71875 -7.234375 C 2.457031 -6.671875 2.328125 -5.878906 2.328125 -4.859375 C 2.328125 -3.785156 2.453125 -2.960938 2.703125 -2.390625 C 2.953125 -1.828125 3.316406 -1.445312 3.796875 -1.25 C 4.273438 -1.050781 4.910156 -0.953125 5.703125 -0.953125 C 5.953125 -0.953125 6.222656 -0.96875 6.515625 -1 C 6.816406 -1.03125 7.070312 -1.078125 7.28125 -1.140625 L 7.28125 -4.140625 L 5.328125 -4.140625 L 5.328125 -5.203125 L 8.484375 -5.203125 L 8.484375 -0.265625 C 7.628906 0.00390625 6.65625 0.140625 5.5625 0.140625 Z M 5.5625 0.140625"></path></g></g></g><g fill-opacity="1" fill="#004aad"><g transform="translate(206.910609, 110.783196)"><g><path d="M 7.046875 -1.140625 L 7.046875 0 L 1.28125 0 L 1.28125 -9.71875 L 6.6875 -9.71875 L 6.6875 -8.59375 L 2.546875 -8.59375 L 2.546875 -5.59375 L 6.40625 -5.59375 L 6.40625 -4.515625 L 2.546875 -4.515625 L 2.546875 -1.140625 Z M 7.046875 -1.140625"></path></g></g></g><g fill-opacity="1" fill="#004aad"><g transform="translate(214.690268, 110.783196)"><g><path d="M 1.28125 -9.71875 L 3.265625 -9.71875 L 7.6875 -1.65625 L 7.765625 -1.65625 L 7.765625 -9.71875 L 9.03125 -9.71875 L 9.03125 0 L 7.359375 0 L 2.609375 -8.546875 L 2.515625 -8.546875 L 2.515625 0 L 1.28125 0 Z M 1.28125 -9.71875"></path></g></g></g><g fill-opacity="1" fill="#004aad"><g transform="translate(225.002515, 110.783196)"><g><path d="M 7.046875 -1.140625 L 7.046875 0 L 1.28125 0 L 1.28125 -9.71875 L 6.6875 -9.71875 L 6.6875 -8.59375 L 2.546875 -8.59375 L 2.546875 -5.59375 L 6.40625 -5.59375 L 6.40625 -4.515625 L 2.546875 -4.515625 L 2.546875 -1.140625 Z M 7.046875 -1.140625"></path></g></g></g><g fill-opacity="1" fill="#004aad"><g transform="translate(232.782174, 110.783196)"><g></g></g></g><g fill-opacity="1" fill="#004aad"><g transform="translate(236.378171, 110.783196)"><g><path d="M 7.15625 -8.59375 L 4.328125 -8.59375 L 4.328125 0 L 3.0625 0 L 3.0625 -8.59375 L 0.21875 -8.59375 L 0.21875 -9.71875 L 7.15625 -9.71875 Z M 7.15625 -8.59375"></path></g></g></g><g fill-opacity="1" fill="#004aad"><g transform="translate(243.766053, 110.783196)"><g><path d="M 8.625 -9.71875 L 8.625 0 L 7.34375 0 L 7.34375 -4.703125 L 2.546875 -4.703125 L 2.546875 0 L 1.28125 0 L 1.28125 -9.71875 L 2.546875 -9.71875 L 2.546875 -5.75 L 7.34375 -5.75 L 7.34375 -9.71875 Z M 8.625 -9.71875"></path></g></g></g><g fill-opacity="1" fill="#004aad"><g transform="translate(253.672527, 110.783196)"><g><path d="M 7.046875 -1.140625 L 7.046875 0 L 1.28125 0 L 1.28125 -9.71875 L 6.6875 -9.71875 L 6.6875 -8.59375 L 2.546875 -8.59375 L 2.546875 -5.59375 L 6.40625 -5.59375 L 6.40625 -4.515625 L 2.546875 -4.515625 L 2.546875 -1.140625 Z M 7.046875 -1.140625"></path></g></g></g><g fill-opacity="1" fill="#004aad"><g transform="translate(261.452186, 110.783196)"><g><path d="M 6.90625 0 L 4.234375 -3.921875 C 4.128906 -3.910156 3.96875 -3.90625 3.75 -3.90625 L 2.546875 -3.90625 L 2.546875 0 L 1.28125 0 L 1.28125 -9.71875 L 3.75 -9.71875 C 4.675781 -9.71875 5.40625 -9.625 5.9375 -9.4375 C 6.46875 -9.257812 6.851562 -8.960938 7.09375 -8.546875 C 7.34375 -8.128906 7.46875 -7.5625 7.46875 -6.84375 C 7.46875 -6.007812 7.304688 -5.375 6.984375 -4.9375 C 6.660156 -4.507812 6.15625 -4.21875 5.46875 -4.0625 L 8.390625 0 Z M 3.640625 -4.953125 C 4.296875 -4.953125 4.800781 -4.992188 5.15625 -5.078125 C 5.507812 -5.171875 5.769531 -5.351562 5.9375 -5.625 C 6.101562 -5.894531 6.1875 -6.300781 6.1875 -6.84375 C 6.1875 -7.332031 6.097656 -7.703125 5.921875 -7.953125 C 5.753906 -8.210938 5.488281 -8.390625 5.125 -8.484375 C 4.769531 -8.578125 4.273438 -8.625 3.640625 -8.625 L 2.546875 -8.625 L 2.546875 -4.953125 Z M 3.640625 -4.953125"></path></g></g></g><g fill-opacity="1" fill="#004aad"><g transform="translate(270.043402, 110.783196)"><g><path d="M 6.796875 -2.890625 L 2.5 -2.890625 L 1.4375 0 L 0.15625 0 L 3.84375 -9.71875 L 5.515625 -9.71875 L 9.1875 0 L 7.859375 0 Z M 6.390625 -4.015625 L 4.765625 -8.546875 L 4.59375 -8.546875 L 2.921875 -4.015625 Z M 6.390625 -4.015625"></path></g></g></g><g fill-opacity="1" fill="#004aad"><g transform="translate(279.376196, 110.783196)"><g><path d="M 1.28125 -9.71875 L 3.984375 -9.71875 C 4.890625 -9.71875 5.601562 -9.609375 6.125 -9.390625 C 6.644531 -9.179688 7.007812 -8.851562 7.21875 -8.40625 C 7.4375 -7.957031 7.546875 -7.359375 7.546875 -6.609375 C 7.546875 -5.835938 7.421875 -5.222656 7.171875 -4.765625 C 6.929688 -4.304688 6.550781 -3.96875 6.03125 -3.75 C 5.519531 -3.539062 4.835938 -3.4375 3.984375 -3.4375 L 2.546875 -3.4375 L 2.546875 0 L 1.28125 0 Z M 3.875 -4.5 C 4.488281 -4.5 4.96875 -4.5625 5.3125 -4.6875 C 5.65625 -4.8125 5.898438 -5.023438 6.046875 -5.328125 C 6.191406 -5.628906 6.265625 -6.054688 6.265625 -6.609375 C 6.265625 -7.109375 6.1875 -7.503906 6.03125 -7.796875 C 5.882812 -8.085938 5.640625 -8.296875 5.296875 -8.421875 C 4.953125 -8.554688 4.476562 -8.625 3.875 -8.625 L 2.546875 -8.625 L 2.546875 -4.5 Z M 3.875 -4.5"></path></g></g></g><g fill-opacity="1" fill="#004aad"><g transform="translate(287.729535, 110.783196)"><g><path d="M 3.515625 -4.171875 L 0.078125 -9.71875 L 1.546875 -9.71875 L 4.15625 -5.3125 L 4.234375 -5.3125 L 6.84375 -9.71875 L 8.234375 -9.71875 L 4.78125 -4.1875 L 4.78125 0 L 3.515625 0 Z M 3.515625 -4.171875"></path></g></g></g><g fill-opacity="1" fill="#004aad"><g transform="translate(296.048318, 110.783196)"><g></g></g></g><g fill-opacity="1" fill="#004aad"><g transform="translate(71.13036, 125.783195)"><g><path d="M 1.375 -10.40625 L 4.28125 -10.40625 C 5.25 -10.40625 6.007812 -10.289062 6.5625 -10.0625 C 7.113281 -9.832031 7.503906 -9.476562 7.734375 -9 C 7.960938 -8.519531 8.078125 -7.878906 8.078125 -7.078125 C 8.078125 -6.253906 7.945312 -5.59375 7.6875 -5.09375 C 7.4375 -4.601562 7.03125 -4.242188 6.46875 -4.015625 C 5.914062 -3.796875 5.1875 -3.6875 4.28125 -3.6875 L 2.734375 -3.6875 L 2.734375 0 L 1.375 0 Z M 4.15625 -4.8125 C 4.8125 -4.8125 5.320312 -4.878906 5.6875 -5.015625 C 6.050781 -5.148438 6.3125 -5.378906 6.46875 -5.703125 C 6.625 -6.023438 6.703125 -6.484375 6.703125 -7.078125 C 6.703125 -7.617188 6.617188 -8.039062 6.453125 -8.34375 C 6.296875 -8.65625 6.035156 -8.878906 5.671875 -9.015625 C 5.304688 -9.160156 4.800781 -9.234375 4.15625 -9.234375 L 2.734375 -9.234375 L 2.734375 -4.8125 Z M 4.15625 -4.8125"></path></g></g></g><g fill-opacity="1" fill="#004aad"><g transform="translate(80.08535, 125.783195)"><g><path d="M 7.296875 -3.109375 L 2.6875 -3.109375 L 1.546875 0 L 0.171875 0 L 4.109375 -10.40625 L 5.90625 -10.40625 L 9.84375 0 L 8.421875 0 Z M 6.859375 -4.3125 L 5.09375 -9.15625 L 4.921875 -9.15625 L 3.140625 -4.3125 Z M 6.859375 -4.3125"></path></g></g></g><g fill-opacity="1" fill="#004aad"><g transform="translate(90.090335, 125.783195)"><g><path d="M 1.375 -10.40625 L 3.5 -10.40625 L 8.234375 -1.765625 L 8.328125 -1.765625 L 8.328125 -10.40625 L 9.671875 -10.40625 L 9.671875 0 L 7.890625 0 L 2.796875 -9.171875 L 2.703125 -9.171875 L 2.703125 0 L 1.375 0 Z M 1.375 -10.40625"></path></g></g></g><g fill-opacity="1" fill="#004aad"><g transform="translate(101.145327, 125.783195)"><g></g></g></g><g fill-opacity="1" fill="#004aad"><g transform="translate(105.000326, 125.783195)"><g><path d="M 7.296875 -3.109375 L 2.6875 -3.109375 L 1.546875 0 L 0.171875 0 L 4.109375 -10.40625 L 5.90625 -10.40625 L 9.84375 0 L 8.421875 0 Z M 6.859375 -4.3125 L 5.09375 -9.15625 L 4.921875 -9.15625 L 3.140625 -4.3125 Z M 6.859375 -4.3125"></path></g></g></g><g fill-opacity="1" fill="#004aad"><g transform="translate(115.005311, 125.783195)"><g><path d="M 3.9375 0.15625 C 3.34375 0.15625 2.753906 0.109375 2.171875 0.015625 C 1.585938 -0.0664062 1.148438 -0.15625 0.859375 -0.25 L 0.859375 -1.5 C 1.191406 -1.375 1.644531 -1.265625 2.21875 -1.171875 C 2.789062 -1.078125 3.363281 -1.03125 3.9375 -1.03125 C 4.738281 -1.03125 5.332031 -1.164062 5.71875 -1.4375 C 6.113281 -1.707031 6.3125 -2.160156 6.3125 -2.796875 C 6.3125 -3.234375 6.242188 -3.570312 6.109375 -3.8125 C 5.984375 -4.050781 5.753906 -4.25 5.421875 -4.40625 C 5.097656 -4.5625 4.597656 -4.71875 3.921875 -4.875 C 3.160156 -5.050781 2.578125 -5.242188 2.171875 -5.453125 C 1.765625 -5.671875 1.46875 -5.957031 1.28125 -6.3125 C 1.09375 -6.664062 1 -7.140625 1 -7.734375 C 1 -8.691406 1.285156 -9.398438 1.859375 -9.859375 C 2.429688 -10.328125 3.300781 -10.5625 4.46875 -10.5625 C 4.957031 -10.5625 5.445312 -10.519531 5.9375 -10.4375 C 6.4375 -10.363281 6.816406 -10.28125 7.078125 -10.1875 L 7.078125 -8.953125 C 6.765625 -9.078125 6.363281 -9.175781 5.875 -9.25 C 5.394531 -9.332031 4.929688 -9.375 4.484375 -9.375 C 3.960938 -9.375 3.550781 -9.328125 3.25 -9.234375 C 2.945312 -9.148438 2.71875 -8.988281 2.5625 -8.75 C 2.414062 -8.519531 2.34375 -8.179688 2.34375 -7.734375 C 2.34375 -7.398438 2.390625 -7.132812 2.484375 -6.9375 C 2.585938 -6.738281 2.785156 -6.566406 3.078125 -6.421875 C 3.378906 -6.285156 3.84375 -6.144531 4.46875 -6 C 5.289062 -5.8125 5.921875 -5.597656 6.359375 -5.359375 C 6.804688 -5.128906 7.128906 -4.816406 7.328125 -4.421875 C 7.535156 -4.023438 7.640625 -3.488281 7.640625 -2.8125 C 7.640625 -0.832031 6.40625 0.15625 3.9375 0.15625 Z M 3.9375 0.15625"></path></g></g></g><g fill-opacity="1" fill="#004aad"><g transform="translate(123.495305, 125.783195)"><g><path d="M 1.375 -10.40625 L 2.734375 -10.40625 L 2.734375 0 L 1.375 0 Z M 1.375 -10.40625"></path></g></g></g><g fill-opacity="1" fill="#004aad"><g transform="translate(127.605301, 125.783195)"><g><path d="M 7.296875 -3.109375 L 2.6875 -3.109375 L 1.546875 0 L 0.171875 0 L 4.109375 -10.40625 L 5.90625 -10.40625 L 9.84375 0 L 8.421875 0 Z M 6.859375 -4.3125 L 5.09375 -9.15625 L 4.921875 -9.15625 L 3.140625 -4.3125 Z M 6.859375 -4.3125"></path></g></g></g><g fill-opacity="1" fill="#004aad"><g transform="translate(137.610286, 125.783195)"><g></g></g></g><g fill-opacity="1" fill="#004aad"><g transform="translate(141.465286, 125.783195)"><g><path d="M 3.9375 0.15625 C 3.34375 0.15625 2.753906 0.109375 2.171875 0.015625 C 1.585938 -0.0664062 1.148438 -0.15625 0.859375 -0.25 L 0.859375 -1.5 C 1.191406 -1.375 1.644531 -1.265625 2.21875 -1.171875 C 2.789062 -1.078125 3.363281 -1.03125 3.9375 -1.03125 C 4.738281 -1.03125 5.332031 -1.164062 5.71875 -1.4375 C 6.113281 -1.707031 6.3125 -2.160156 6.3125 -2.796875 C 6.3125 -3.234375 6.242188 -3.570312 6.109375 -3.8125 C 5.984375 -4.050781 5.753906 -4.25 5.421875 -4.40625 C 5.097656 -4.5625 4.597656 -4.71875 3.921875 -4.875 C 3.160156 -5.050781 2.578125 -5.242188 2.171875 -5.453125 C 1.765625 -5.671875 1.46875 -5.957031 1.28125 -6.3125 C 1.09375 -6.664062 1 -7.140625 1 -7.734375 C 1 -8.691406 1.285156 -9.398438 1.859375 -9.859375 C 2.429688 -10.328125 3.300781 -10.5625 4.46875 -10.5625 C 4.957031 -10.5625 5.445312 -10.519531 5.9375 -10.4375 C 6.4375 -10.363281 6.816406 -10.28125 7.078125 -10.1875 L 7.078125 -8.953125 C 6.765625 -9.078125 6.363281 -9.175781 5.875 -9.25 C 5.394531 -9.332031 4.929688 -9.375 4.484375 -9.375 C 3.960938 -9.375 3.550781 -9.328125 3.25 -9.234375 C 2.945312 -9.148438 2.71875 -8.988281 2.5625 -8.75 C 2.414062 -8.519531 2.34375 -8.179688 2.34375 -7.734375 C 2.34375 -7.398438 2.390625 -7.132812 2.484375 -6.9375 C 2.585938 -6.738281 2.785156 -6.566406 3.078125 -6.421875 C 3.378906 -6.285156 3.84375 -6.144531 4.46875 -6 C 5.289062 -5.8125 5.921875 -5.597656 6.359375 -5.359375 C 6.804688 -5.128906 7.128906 -4.816406 7.328125 -4.421875 C 7.535156 -4.023438 7.640625 -3.488281 7.640625 -2.8125 C 7.640625 -0.832031 6.40625 0.15625 3.9375 0.15625 Z M 3.9375 0.15625"></path></g></g></g><g fill-opacity="1" fill="#004aad"><g transform="translate(149.955279, 125.783195)"><g><path d="M 5.25 0.15625 C 3.914062 0.15625 2.925781 -0.117188 2.28125 -0.671875 C 1.644531 -1.222656 1.328125 -2.117188 1.328125 -3.359375 L 1.328125 -10.40625 L 2.671875 -10.40625 L 2.671875 -3.65625 C 2.671875 -2.988281 2.753906 -2.46875 2.921875 -2.09375 C 3.085938 -1.71875 3.359375 -1.445312 3.734375 -1.28125 C 4.109375 -1.113281 4.617188 -1.03125 5.265625 -1.03125 C 5.941406 -1.03125 6.460938 -1.113281 6.828125 -1.28125 C 7.203125 -1.445312 7.46875 -1.710938 7.625 -2.078125 C 7.78125 -2.453125 7.859375 -2.976562 7.859375 -3.65625 L 7.859375 -10.40625 L 9.1875 -10.40625 L 9.1875 -3.359375 C 9.1875 -2.148438 8.863281 -1.257812 8.21875 -0.6875 C 7.570312 -0.125 6.582031 0.15625 5.25 0.15625 Z M 5.25 0.15625"></path></g></g></g><g fill-opacity="1" fill="#004aad"><g transform="translate(160.47027, 125.783195)"><g><path d="M 1.375 -10.40625 L 3.546875 -10.40625 L 6.1875 -3.703125 L 6.28125 -3.703125 L 8.9375 -10.40625 L 11.0625 -10.40625 L 11.0625 0 L 9.71875 0 L 9.71875 -9.046875 L 9.625 -9.046875 L 6.953125 -2.359375 L 5.484375 -2.359375 L 2.796875 -9.046875 L 2.703125 -9.046875 L 2.703125 0 L 1.375 0 Z M 1.375 -10.40625"></path></g></g></g><g fill-opacity="1" fill="#004aad"><g transform="translate(172.920263, 125.783195)"><g><path d="M 1.375 -10.40625 L 3.546875 -10.40625 L 6.1875 -3.703125 L 6.28125 -3.703125 L 8.9375 -10.40625 L 11.0625 -10.40625 L 11.0625 0 L 9.71875 0 L 9.71875 -9.046875 L 9.625 -9.046875 L 6.953125 -2.359375 L 5.484375 -2.359375 L 2.796875 -9.046875 L 2.703125 -9.046875 L 2.703125 0 L 1.375 0 Z M 1.375 -10.40625"></path></g></g></g><g fill-opacity="1" fill="#004aad"><g transform="translate(185.370255, 125.783195)"><g><path d="M 1.375 -10.40625 L 2.734375 -10.40625 L 2.734375 0 L 1.375 0 Z M 1.375 -10.40625"></path></g></g></g><g fill-opacity="1" fill="#004aad"><g transform="translate(189.480251, 125.783195)"><g><path d="M 7.671875 -9.203125 L 4.640625 -9.203125 L 4.640625 0 L 3.28125 0 L 3.28125 -9.203125 L 0.234375 -9.203125 L 0.234375 -10.40625 L 7.671875 -10.40625 Z M 7.671875 -9.203125"></path></g></g></g><g fill-opacity="1" fill="#004aad"><g transform="translate(197.400249, 125.783195)"><g></g></g></g><g fill-opacity="1" fill="#004aad"><g transform="translate(201.255248, 125.783195)"><g><path d="M 0.859375 -1.421875 C 2.304688 -2.566406 3.394531 -3.5 4.125 -4.21875 C 4.863281 -4.9375 5.359375 -5.539062 5.609375 -6.03125 C 5.867188 -6.53125 6 -7.050781 6 -7.59375 C 6 -8.269531 5.785156 -8.742188 5.359375 -9.015625 C 4.929688 -9.296875 4.410156 -9.4375 3.796875 -9.4375 C 3.003906 -9.4375 2.265625 -9.347656 1.578125 -9.171875 L 1.578125 -10.3125 C 2.253906 -10.476562 3.039062 -10.5625 3.9375 -10.5625 C 5 -10.5625 5.820312 -10.320312 6.40625 -9.84375 C 7 -9.363281 7.296875 -8.609375 7.296875 -7.578125 C 7.296875 -6.929688 7.164062 -6.335938 6.90625 -5.796875 C 6.644531 -5.265625 6.207031 -4.6875 5.59375 -4.0625 C 4.988281 -3.4375 4.101562 -2.660156 2.9375 -1.734375 L 2.34375 -1.28125 L 2.34375 -1.140625 L 7.703125 -1.140625 L 7.703125 0 L 0.859375 0 Z M 0.859375 -1.421875"></path></g></g></g><g fill-opacity="1" fill="#004aad"><g transform="translate(209.880236, 125.783195)"><g><path d="M 4.3125 0.15625 C 3.5625 0.15625 2.929688 0 2.421875 -0.3125 C 1.910156 -0.625 1.507812 -1.171875 1.21875 -1.953125 C 0.9375 -2.742188 0.796875 -3.828125 0.796875 -5.203125 C 0.796875 -6.578125 0.9375 -7.65625 1.21875 -8.4375 C 1.507812 -9.21875 1.910156 -9.765625 2.421875 -10.078125 C 2.929688 -10.398438 3.5625 -10.5625 4.3125 -10.5625 C 5.0625 -10.5625 5.691406 -10.398438 6.203125 -10.078125 C 6.710938 -9.765625 7.109375 -9.21875 7.390625 -8.4375 C 7.679688 -7.65625 7.828125 -6.578125 7.828125 -5.203125 C 7.828125 -3.828125 7.679688 -2.742188 7.390625 -1.953125 C 7.109375 -1.171875 6.710938 -0.625 6.203125 -0.3125 C 5.691406 0 5.0625 0.15625 4.3125 0.15625 Z M 4.3125 -0.96875 C 4.8125 -0.96875 5.21875 -1.085938 5.53125 -1.328125 C 5.84375 -1.578125 6.078125 -2.007812 6.234375 -2.625 C 6.390625 -3.25 6.46875 -4.109375 6.46875 -5.203125 C 6.46875 -6.304688 6.390625 -7.160156 6.234375 -7.765625 C 6.078125 -8.378906 5.84375 -8.804688 5.53125 -9.046875 C 5.21875 -9.296875 4.8125 -9.421875 4.3125 -9.421875 C 3.800781 -9.421875 3.390625 -9.296875 3.078125 -9.046875 C 2.773438 -8.804688 2.546875 -8.378906 2.390625 -7.765625 C 2.242188 -7.160156 2.171875 -6.304688 2.171875 -5.203125 C 2.171875 -4.109375 2.242188 -3.25 2.390625 -2.625 C 2.546875 -2.007812 2.773438 -1.578125 3.078125 -1.328125 C 3.390625 -1.085938 3.800781 -0.96875 4.3125 -0.96875 Z M 4.3125 -0.96875"></path></g></g></g><g fill-opacity="1" fill="#004aad"><g transform="translate(218.505224, 125.783195)"><g><path d="M 0.859375 -1.421875 C 2.304688 -2.566406 3.394531 -3.5 4.125 -4.21875 C 4.863281 -4.9375 5.359375 -5.539062 5.609375 -6.03125 C 5.867188 -6.53125 6 -7.050781 6 -7.59375 C 6 -8.269531 5.785156 -8.742188 5.359375 -9.015625 C 4.929688 -9.296875 4.410156 -9.4375 3.796875 -9.4375 C 3.003906 -9.4375 2.265625 -9.347656 1.578125 -9.171875 L 1.578125 -10.3125 C 2.253906 -10.476562 3.039062 -10.5625 3.9375 -10.5625 C 5 -10.5625 5.820312 -10.320312 6.40625 -9.84375 C 7 -9.363281 7.296875 -8.609375 7.296875 -7.578125 C 7.296875 -6.929688 7.164062 -6.335938 6.90625 -5.796875 C 6.644531 -5.265625 6.207031 -4.6875 5.59375 -4.0625 C 4.988281 -3.4375 4.101562 -2.660156 2.9375 -1.734375 L 2.34375 -1.28125 L 2.34375 -1.140625 L 7.703125 -1.140625 L 7.703125 0 L 0.859375 0 Z M 0.859375 -1.421875"></path></g></g></g><g fill-opacity="1" fill="#004aad"><g transform="translate(227.130212, 125.783195)"><g><path d="M 7.9375 -2.5625 L 6.703125 -2.5625 L 6.703125 0 L 5.4375 0 L 5.4375 -2.5625 L 0.53125 -2.5625 L 0.53125 -4.015625 L 5.078125 -10.40625 L 6.703125 -10.40625 L 6.703125 -3.703125 L 7.9375 -3.703125 Z M 5.4375 -3.703125 L 5.4375 -9.03125 L 5.359375 -9.03125 L 1.671875 -3.796875 L 1.671875 -3.703125 Z M 5.4375 -3.703125"></path></g></g></g><g clip-path="url(#8b3e1cc37f)"><g clip-path="url(#5c450f1497)"><g clip-path="url(#86a67a83de)"><g clip-path="url(#a6ac6b54f0)"><path fill-rule="nonzero" fill-opacity="1" d="M 76.152344 58.46875 C 76.070312 58.441406 75.988281 58.425781 75.910156 58.421875 C 74.625 58.378906 73.355469 58.214844 72.144531 57.824219 L 71.324219 57.558594 C 69.710938 57.039062 68.179688 56.253906 66.875 55.132812 C 66.734375 55.011719 66.566406 54.921875 66.375 54.875 C 65.734375 54.714844 65.039062 55.117188 64.773438 55.804688 C 64.460938 56.605469 64.824219 57.476562 65.550781 57.710938 C 65.710938 57.761719 65.875 57.777344 66.039062 57.761719 C 67.683594 57.601562 69.316406 57.835938 70.867188 58.335938 L 71.820312 58.644531 C 73.035156 59.035156 74.207031 59.582031 75.242188 60.351562 C 75.316406 60.40625 75.398438 60.449219 75.492188 60.476562 C 76.007812 60.644531 76.578125 60.296875 76.738281 59.707031 C 76.882812 59.175781 76.621094 58.625 76.152344 58.46875" fill="#1c81af"></path></g></g></g></g><g clip-path="url(#73c4b78cc1)"><g clip-path="url(#fe0aa445e0)"><g clip-path="url(#c2532e83e6)"><g clip-path="url(#082a5090a0)"><g clip-path="url(#5eff7dfb54)"><g clip-path="url(#5b15e12e17)"><path fill-rule="nonzero" fill-opacity="1" d="M 84.21875 52.96875 C 84.089844 52.917969 83.957031 52.890625 83.828125 52.886719 C 82.261719 52.839844 80.699219 52.507812 79.195312 52.019531 L 74.105469 50.378906 C 72.398438 49.828125 70.746094 49.082031 69.296875 48.0625 C 69.191406 47.988281 69.070312 47.925781 68.9375 47.882812 C 68.34375 47.695312 67.707031 47.957031 67.507812 48.472656 C 67.285156 49.042969 67.648438 49.691406 68.292969 49.898438 C 68.410156 49.9375 68.523438 49.957031 68.636719 49.960938 C 70.21875 50.039062 71.792969 50.378906 73.316406 50.871094 L 80.046875 53.042969 C 81.210938 53.417969 82.304688 53.960938 83.351562 54.578125 C 83.425781 54.621094 83.5 54.65625 83.582031 54.683594 C 84.160156 54.867188 84.761719 54.570312 84.867188 54.027344 C 84.945312 53.601562 84.671875 53.148438 84.21875 52.96875" fill="#1c81af"></path></g></g></g></g></g></g><g clip-path="url(#b19a0d2a1c)"><g clip-path="url(#0e9ddb50ed)"><g clip-path="url(#f6b25fd1f4)"><g clip-path="url(#9ab3b6b85a)"><path fill-rule="nonzero" fill-opacity="1" d="M 81.847656 47.296875 C 81.796875 47.269531 81.742188 47.261719 81.6875 47.261719 C 81.226562 47.265625 80.773438 47.226562 80.339844 47.085938 L 76.160156 45.738281 C 75.484375 45.519531 74.871094 45.144531 74.34375 44.632812 C 74.257812 44.550781 74.152344 44.496094 74.03125 44.476562 C 73.726562 44.433594 73.40625 44.652344 73.257812 45 C 73.058594 45.472656 73.230469 45.976562 73.609375 46.101562 C 73.691406 46.125 73.777344 46.132812 73.863281 46.121094 C 74.539062 46.019531 75.214844 46.035156 75.84375 46.238281 L 80.027344 47.589844 C 80.496094 47.742188 80.953125 47.953125 81.34375 48.269531 C 81.378906 48.300781 81.417969 48.320312 81.464844 48.335938 C 81.714844 48.417969 82 48.210938 82.078125 47.882812 C 82.132812 47.632812 82.035156 47.382812 81.847656 47.296875" fill="#1c81af"></path></g></g></g></g><g clip-path="url(#61fbbc11b1)"><g clip-path="url(#b045e1464a)"><g clip-path="url(#c77a6e10b3)"><g clip-path="url(#edb39c1249)"><path fill-rule="nonzero" fill-opacity="1" d="M 64.855469 73.179688 C 64.425781 73.003906 63.980469 72.996094 63.578125 73.125 C 62.53125 73.460938 61.40625 73.492188 60.351562 73.152344 L 56.832031 72.015625 C 55.996094 71.746094 55.265625 71.238281 54.679688 70.585938 C 54.515625 70.402344 54.292969 70.261719 54.03125 70.1875 C 53.382812 70.015625 52.691406 70.355469 52.449219 70.976562 C 52.167969 71.691406 52.554688 72.488281 53.285156 72.722656 C 53.515625 72.796875 53.75 72.808594 53.96875 72.761719 C 54.84375 72.578125 55.75 72.59375 56.597656 72.867188 L 60.082031 73.992188 C 61.132812 74.332031 62.027344 75.015625 62.683594 75.902344 C 62.902344 76.199219 63.214844 76.4375 63.59375 76.558594 C 64.59375 76.878906 65.664062 76.304688 65.917969 75.277344 C 66.128906 74.425781 65.671875 73.523438 64.855469 73.179688" fill="#1c81af"></path></g></g></g></g><g clip-path="url(#d567cec6e8)"><g clip-path="url(#8549c28fcf)"><g clip-path="url(#810c122e00)"><g clip-path="url(#6bf718b730)"><path fill-rule="nonzero" fill-opacity="1" d="M 62.726562 82.089844 C 62.34375 81.945312 61.953125 81.910156 61.597656 81.96875 C 60.324219 82.179688 58.957031 82.03125 57.667969 81.617188 L 48.328125 78.601562 C 47.34375 78.285156 46.414062 77.808594 45.648438 77.167969 C 45.464844 77.015625 45.234375 76.894531 44.96875 76.835938 C 44.371094 76.703125 43.777344 76.9375 43.558594 77.394531 C 43.269531 77.996094 43.695312 78.722656 44.445312 78.964844 C 44.628906 79.023438 44.8125 79.046875 44.984375 79.042969 C 46.007812 79.007812 47.050781 79.117188 48.050781 79.4375 L 57.375 82.449219 C 58.671875 82.867188 59.878906 83.550781 60.796875 84.46875 C 61.023438 84.699219 61.324219 84.886719 61.671875 85 C 62.707031 85.332031 63.765625 84.886719 63.972656 84.007812 C 64.152344 83.25 63.613281 82.417969 62.726562 82.089844" fill="#1c81af"></path></g></g></g></g><g clip-path="url(#e1aaae49b3)"><g clip-path="url(#1cead9f6c5)"><g clip-path="url(#33792c9786)"><g clip-path="url(#53ce846059)"><path fill-rule="nonzero" fill-opacity="1" d="M 56.539062 88.96875 C 56.277344 88.867188 56.003906 88.859375 55.757812 88.929688 C 55.078125 89.121094 54.351562 89.078125 53.679688 88.859375 L 48.503906 87.191406 C 47.925781 87.003906 47.394531 86.691406 46.980469 86.25 C 46.84375 86.105469 46.660156 86 46.445312 85.957031 C 45.992188 85.863281 45.53125 86.097656 45.34375 86.515625 C 45.09375 87.0625 45.386719 87.6875 45.949219 87.867188 C 46.117188 87.921875 46.289062 87.929688 46.449219 87.898438 C 47.042969 87.78125 47.660156 87.84375 48.238281 88.03125 L 53.449219 89.710938 C 54.121094 89.929688 54.703125 90.347656 55.15625 90.886719 C 55.300781 91.054688 55.492188 91.1875 55.722656 91.261719 C 56.390625 91.480469 57.113281 91.09375 57.289062 90.40625 C 57.4375 89.816406 57.113281 89.191406 56.539062 88.96875" fill="#1c81af"></path></g></g></g></g><g clip-path="url(#5ebbc4910a)"><g clip-path="url(#1e9e88b159)"><g clip-path="url(#563a448a55)"><g clip-path="url(#ea36e4d98b)"><path fill-rule="nonzero" fill-opacity="1" d="M 79.433594 42.832031 C 79.246094 43.417969 78.609375 43.738281 78.019531 43.546875 C 77.425781 43.355469 77.097656 42.726562 77.289062 42.140625 C 77.476562 41.550781 78.113281 41.230469 78.703125 41.421875 C 79.296875 41.613281 79.625 42.246094 79.433594 42.832031" fill="#1c81af"></path></g></g></g></g><g clip-path="url(#3f48f36a51)"><g clip-path="url(#77899c61b1)"><g clip-path="url(#c4d12e7fde)"><g clip-path="url(#4e507905c0)"><path fill-rule="nonzero" fill-opacity="1" d="M 82.5625 40.109375 C 82.410156 40.589844 81.890625 40.851562 81.40625 40.695312 C 80.921875 40.539062 80.652344 40.023438 80.808594 39.542969 C 80.960938 39.0625 81.480469 38.800781 81.964844 38.957031 C 82.449219 39.113281 82.71875 39.628906 82.5625 40.109375" fill="#1c81af"></path></g></g></g></g><g clip-path="url(#c90ea7f878)"><g clip-path="url(#99a9d03531)"><g clip-path="url(#f8872c9051)"><g clip-path="url(#9413fd820c)"><path fill-rule="nonzero" fill-opacity="1" d="M 63.160156 51.691406 C 59.523438 59.015625 67.085938 64.585938 69.238281 71.09375 C 70.382812 74.550781 70.140625 78.535156 68.238281 81.667969 C 68.890625 78.621094 68.8125 75.429688 67.753906 72.472656 C 65.527344 66.238281 56.625 58.15625 63.160156 51.691406" fill="#1c81af"></path></g></g></g></g><g clip-path="url(#97e8fd3f1c)"><g clip-path="url(#e02c408caa)"><g clip-path="url(#5a0075bfb0)"><g clip-path="url(#bfcd005237)"><path fill-rule="nonzero" fill-opacity="1" d="M 52.558594 94.78125 C 52.316406 95.53125 51.507812 95.941406 50.75 95.699219 C 49.992188 95.453125 49.574219 94.648438 49.816406 93.898438 C 50.058594 93.148438 50.867188 92.738281 51.625 92.984375 C 52.382812 93.226562 52.800781 94.03125 52.558594 94.78125" fill="#1c81af"></path></g></g></g></g><g clip-path="url(#0d6ac63c3c)"><g clip-path="url(#75ba1a275e)"><g clip-path="url(#22f5d3e3a5)"><g clip-path="url(#62ddf7fa06)"><g clip-path="url(#ecb53640fd)"><g clip-path="url(#64cb125c21)"><path fill-rule="nonzero" fill-opacity="1" d="M 47.816406 97.792969 C 47.644531 98.328125 47.0625 98.625 46.523438 98.449219 C 45.980469 98.273438 45.679688 97.695312 45.855469 97.160156 C 46.027344 96.625 46.605469 96.332031 47.148438 96.503906 C 47.691406 96.679688 47.988281 97.257812 47.816406 97.792969" fill="#1c81af"></path></g></g></g></g></g></g><g fill-opacity="1" fill="#004aad"><g transform="translate(69.641198, 97.036532)"><g><path d="M 11.5625 0.453125 C 9.882812 0.453125 8.210938 0.335938 6.546875 0.109375 C 4.878906 -0.109375 3.519531 -0.367188 2.46875 -0.671875 L 2.46875 -6.65625 C 3.488281 -6.300781 4.820312 -6 6.46875 -5.75 C 8.125 -5.507812 9.734375 -5.390625 11.296875 -5.390625 C 13.359375 -5.390625 14.785156 -5.660156 15.578125 -6.203125 C 16.378906 -6.742188 16.78125 -7.71875 16.78125 -9.125 C 16.78125 -9.96875 16.632812 -10.628906 16.34375 -11.109375 C 16.0625 -11.585938 15.523438 -12.015625 14.734375 -12.390625 C 13.941406 -12.765625 12.734375 -13.148438 11.109375 -13.546875 C 8.828125 -14.078125 7.078125 -14.679688 5.859375 -15.359375 C 4.648438 -16.035156 3.789062 -16.925781 3.28125 -18.03125 C 2.769531 -19.144531 2.515625 -20.644531 2.515625 -22.53125 C 2.515625 -25.738281 3.484375 -28.0625 5.421875 -29.5 C 7.359375 -30.945312 10.195312 -31.671875 13.9375 -31.671875 C 15.59375 -31.671875 17.109375 -31.566406 18.484375 -31.359375 C 19.867188 -31.148438 21.023438 -30.878906 21.953125 -30.546875 L 21.953125 -24.921875 C 21.140625 -25.191406 19.960938 -25.445312 18.421875 -25.6875 C 16.878906 -25.925781 15.476562 -26.046875 14.21875 -26.046875 C 12.382812 -26.046875 11.082031 -25.804688 10.3125 -25.328125 C 9.550781 -24.847656 9.171875 -23.976562 9.171875 -22.71875 C 9.171875 -22 9.296875 -21.4375 9.546875 -21.03125 C 9.804688 -20.625 10.300781 -20.265625 11.03125 -19.953125 C 11.769531 -19.640625 12.921875 -19.285156 14.484375 -18.890625 C 17.003906 -18.265625 18.898438 -17.5625 20.171875 -16.78125 C 21.453125 -16 22.335938 -15.007812 22.828125 -13.8125 C 23.328125 -12.613281 23.578125 -10.992188 23.578125 -8.953125 C 23.578125 -5.804688 22.625 -3.453125 20.71875 -1.890625 C 18.8125 -0.328125 15.757812 0.453125 11.5625 0.453125 Z M 11.5625 0.453125"></path></g></g></g><g fill-opacity="1" fill="#004aad"><g transform="translate(95.637629, 97.036532)"><g><path d="M 17.71875 0.453125 C 14.425781 0.453125 11.691406 -0.00390625 9.515625 -0.921875 C 7.335938 -1.835938 5.640625 -3.460938 4.421875 -5.796875 C 3.210938 -8.140625 2.609375 -11.410156 2.609375 -15.609375 C 2.609375 -21.367188 3.894531 -25.484375 6.46875 -27.953125 C 9.050781 -30.429688 12.785156 -31.671875 17.671875 -31.671875 C 20.617188 -31.671875 23.050781 -31.328125 24.96875 -30.640625 L 24.96875 -24.734375 C 22.894531 -25.460938 20.613281 -25.828125 18.125 -25.828125 C 16.207031 -25.828125 14.660156 -25.503906 13.484375 -24.859375 C 12.316406 -24.210938 11.445312 -23.15625 10.875 -21.6875 C 10.3125 -20.21875 10.03125 -18.207031 10.03125 -15.65625 C 10.03125 -12.988281 10.304688 -10.921875 10.859375 -9.453125 C 11.421875 -7.984375 12.269531 -6.953125 13.40625 -6.359375 C 14.539062 -5.773438 16.082031 -5.484375 18.03125 -5.484375 C 20.644531 -5.484375 23.078125 -5.890625 25.328125 -6.703125 L 25.328125 -0.859375 C 24.367188 -0.460938 23.222656 -0.144531 21.890625 0.09375 C 20.554688 0.332031 19.164062 0.453125 17.71875 0.453125 Z M 17.71875 0.453125"></path></g></g></g><g fill-opacity="1" fill="#004aad"><g transform="translate(122.758477, 97.036532)"><g><path d="M 18 0.453125 C 14.550781 0.453125 11.710938 0.00390625 9.484375 -0.890625 C 7.265625 -1.796875 5.5625 -3.414062 4.375 -5.75 C 3.195312 -8.09375 2.609375 -11.378906 2.609375 -15.609375 C 2.609375 -21.398438 3.9375 -25.523438 6.59375 -27.984375 C 9.25 -30.441406 13.125 -31.671875 18.21875 -31.671875 C 19.75 -31.671875 21.289062 -31.566406 22.84375 -31.359375 C 24.40625 -31.148438 25.664062 -30.878906 26.625 -30.546875 L 26.625 -24.5625 C 24.320312 -25.40625 21.703125 -25.828125 18.765625 -25.828125 C 16.691406 -25.828125 15.03125 -25.519531 13.78125 -24.90625 C 12.539062 -24.289062 11.613281 -23.238281 11 -21.75 C 10.382812 -20.257812 10.078125 -18.210938 10.078125 -15.609375 C 10.078125 -12.847656 10.347656 -10.734375 10.890625 -9.265625 C 11.429688 -7.796875 12.289062 -6.769531 13.46875 -6.1875 C 14.65625 -5.601562 16.3125 -5.3125 18.4375 -5.3125 C 19.882812 -5.3125 20.992188 -5.398438 21.765625 -5.578125 L 21.765625 -12.328125 L 16.46875 -12.328125 L 16.46875 -18.03125 L 28.109375 -18.03125 L 28.109375 -0.9375 C 26.878906 -0.550781 25.347656 -0.222656 23.515625 0.046875 C 21.691406 0.316406 19.851562 0.453125 18 0.453125 Z M 18 0.453125"></path></g></g></g><g fill-opacity="1" fill="#004aad"><g transform="translate(153.927215, 97.036532)"><g><path d="M 23.984375 -25.234375 L 15.796875 -25.234375 L 15.796875 0 L 9 0 L 9 -25.234375 L 0.8125 -25.234375 L 0.8125 -31.21875 L 23.984375 -31.21875 Z M 23.984375 -25.234375"></path></g></g></g><g fill-opacity="1" fill="#004aad"><g transform="translate(178.709279, 97.036532)"><g></g></g></g><g fill-opacity="1" fill="#004aad"><g transform="translate(190.268246, 97.036532)"><g><path d="M 2.296875 -5.84375 C 6.078125 -8.875 8.976562 -11.328125 11 -13.203125 C 13.019531 -15.078125 14.460938 -16.679688 15.328125 -18.015625 C 16.203125 -19.347656 16.640625 -20.613281 16.640625 -21.8125 C 16.640625 -23.4375 16.179688 -24.582031 15.265625 -25.25 C 14.359375 -25.925781 13.003906 -26.265625 11.203125 -26.265625 C 8.953125 -26.265625 6.613281 -25.875 4.1875 -25.09375 L 4.1875 -30.546875 C 6.519531 -31.296875 9.273438 -31.671875 12.453125 -31.671875 C 15.929688 -31.671875 18.625 -30.925781 20.53125 -29.4375 C 22.4375 -27.957031 23.390625 -25.75 23.390625 -22.8125 C 23.390625 -21.007812 23.101562 -19.410156 22.53125 -18.015625 C 21.96875 -16.617188 20.910156 -15.09375 19.359375 -13.4375 C 17.816406 -11.789062 15.515625 -9.753906 12.453125 -7.328125 L 10.484375 -5.765625 L 10.484375 -5.390625 L 24.109375 -5.390625 L 24.109375 0 L 2.296875 0 Z M 2.296875 -5.84375"></path></g></g></g><g fill-opacity="1" fill="#004aad"><g transform="translate(216.804404, 97.036532)"><g><path d="M 13.265625 0.453125 C 10.804688 0.453125 8.753906 -0.0195312 7.109375 -0.96875 C 5.460938 -1.914062 4.179688 -3.566406 3.265625 -5.921875 C 2.347656 -8.273438 1.890625 -11.519531 1.890625 -15.65625 C 1.890625 -19.789062 2.347656 -23.023438 3.265625 -25.359375 C 4.179688 -27.703125 5.460938 -29.335938 7.109375 -30.265625 C 8.753906 -31.203125 10.804688 -31.671875 13.265625 -31.671875 C 15.722656 -31.671875 17.769531 -31.203125 19.40625 -30.265625 C 21.039062 -29.335938 22.304688 -27.703125 23.203125 -25.359375 C 24.109375 -23.023438 24.5625 -19.789062 24.5625 -15.65625 C 24.5625 -11.519531 24.109375 -8.265625 23.203125 -5.890625 C 22.304688 -3.523438 21.039062 -1.875 19.40625 -0.9375 C 17.769531 -0.0078125 15.722656 0.453125 13.265625 0.453125 Z M 13.265625 -5.171875 C 14.492188 -5.171875 15.453125 -5.460938 16.140625 -6.046875 C 16.835938 -6.628906 17.34375 -7.660156 17.65625 -9.140625 C 17.96875 -10.628906 18.125 -12.785156 18.125 -15.609375 C 18.125 -18.398438 17.96875 -20.546875 17.65625 -22.046875 C 17.34375 -23.546875 16.835938 -24.59375 16.140625 -25.1875 C 15.453125 -25.789062 14.492188 -26.09375 13.265625 -26.09375 C 12.035156 -26.09375 11.078125 -25.789062 10.390625 -25.1875 C 9.703125 -24.59375 9.195312 -23.546875 8.875 -22.046875 C 8.5625 -20.546875 8.40625 -18.398438 8.40625 -15.609375 C 8.40625 -12.785156 8.5625 -10.628906 8.875 -9.140625 C 9.195312 -7.660156 9.703125 -6.628906 10.390625 -6.046875 C 11.078125 -5.460938 12.035156 -5.171875 13.265625 -5.171875 Z M 13.265625 -5.171875"></path></g></g></g><g fill-opacity="1" fill="#004aad"><g transform="translate(243.340562, 97.036532)"><g><path d="M 2.296875 -5.84375 C 6.078125 -8.875 8.976562 -11.328125 11 -13.203125 C 13.019531 -15.078125 14.460938 -16.679688 15.328125 -18.015625 C 16.203125 -19.347656 16.640625 -20.613281 16.640625 -21.8125 C 16.640625 -23.4375 16.179688 -24.582031 15.265625 -25.25 C 14.359375 -25.925781 13.003906 -26.265625 11.203125 -26.265625 C 8.953125 -26.265625 6.613281 -25.875 4.1875 -25.09375 L 4.1875 -30.546875 C 6.519531 -31.296875 9.273438 -31.671875 12.453125 -31.671875 C 15.929688 -31.671875 18.625 -30.925781 20.53125 -29.4375 C 22.4375 -27.957031 23.390625 -25.75 23.390625 -22.8125 C 23.390625 -21.007812 23.101562 -19.410156 22.53125 -18.015625 C 21.96875 -16.617188 20.910156 -15.09375 19.359375 -13.4375 C 17.816406 -11.789062 15.515625 -9.753906 12.453125 -7.328125 L 10.484375 -5.765625 L 10.484375 -5.390625 L 24.109375 -5.390625 L 24.109375 0 L 2.296875 0 Z M 2.296875 -5.84375"></path></g></g></g><g fill-opacity="1" fill="#004aad"><g transform="translate(269.876719, 97.036532)"><g><path d="M 24.734375 -6.65625 L 21.328125 -6.65625 L 21.328125 0 L 15.0625 0 L 15.0625 -6.65625 L 1.171875 -6.65625 L 1.171875 -13.046875 L 13.71875 -31.21875 L 21.328125 -31.21875 L 21.328125 -12.1875 L 24.734375 -12.1875 Z M 15.0625 -12.1875 L 15.0625 -24.46875 L 14.796875 -24.46875 L 6.703125 -12.453125 L 6.703125 -12.1875 Z M 15.0625 -12.1875"></path></g></g></g></svg>